<?xml version="1.0" encoding="UTF-8"?>
<svg id="Layer_1" data-name="Layer 1" xmlns="http://www.w3.org/2000/svg" xmlns:xlink="http://www.w3.org/1999/xlink" viewBox="0 0 600 600">
  <defs>
    <style>
      .cls-1 {
        fill: url(#linear-gradient-2);
      }

      .cls-2 {
        fill: url(#linear-gradient-3);
      }

      .cls-3 {
        fill: url(#linear-gradient);
      }

      .cls-4 {
        fill: url(#linear-gradient-4);
      }
    </style>
    <linearGradient id="linear-gradient" x1="-61.87" y1="176.52" x2="223.48" y2="461.87" gradientUnits="userSpaceOnUse">
      <stop offset="0" stop-color="#ea52f8"/>
      <stop offset="1" stop-color="#0093ff"/>
    </linearGradient>
    <linearGradient id="linear-gradient-2" x1="141.79" y1="166.79" x2="408.21" y2="433.21" xlink:href="#linear-gradient"/>
    <linearGradient id="linear-gradient-3" x1="119.82" y1="-105.18" x2="655.18" y2="430.18" xlink:href="#linear-gradient"/>
    <linearGradient id="linear-gradient-4" x1="144.82" y1="419.82" x2="455.18" y2="730.18" xlink:href="#linear-gradient"/>
  </defs>
  <path class="cls-3" d="M25,100c-13.81,0-25,11.19-25,25v225H0c0,82.84,67.16,150,150,150h25c13.81,0,25-11.19,25-25h0c0-13.81-11.19-25-25-25h-25c-55.23,0-100-44.77-100-100h0V125c0-13.81-11.19-25-25-25h0Z"/>
  <path class="cls-1" d="M250,475c0-13.81,11.19-25,25-25h25c27.61,0,50-22.39,50-50h0c0-27.61-22.39-50-50-50h-100c-55.23,0-100-44.77-100-100h0c0-55.23,44.77-100,100-100h125c13.81,0,25,11.19,25,25h0c0,13.81-11.19,25-25,25h-125c-27.61,0-50,22.39-50,50h0c0,27.61,22.39,50,50,50h100c55.23,0,100,44.77,100,100h0c0,55.23-44.77,100-100,100h-25c-13.81,0-25-11.19-25-25h0Z"/>
  <path class="cls-2" d="M500,300V25C500,11.19,488.81,0,475,0H25C11.19,0,0,11.19,0,25H0c0,13.81,11.19,25,25,25H450V475c0,13.81,11.19,25,25,25h0c13.81,0,25-11.19,25-25v-75h0c27.61,0,50,22.39,50,50h0v25c0,13.81,11.19,25,25,25h0c13.81,0,25-11.19,25-25v-25s0,0,0,0c0-55.23-44.77-100-100-100h0c55.23,0,100-44.77,100-100h0v-75c0-13.81-11.19-25-25-25h0c-13.81,0-25,11.19-25,25v75s0,0,0,0c0,27.61-22.39,50-50,50h0Z"/>
  <rect class="cls-4" x="0" y="550" width="600" height="50" rx="25" ry="25"/>
</svg>