<?xml version="1.0" encoding="UTF-8"?>
<svg id="Layer_1" data-name="Layer 1" xmlns="http://www.w3.org/2000/svg" viewBox="0 0 600 600">
  <defs>
    <style>
      .cls-1 {
        fill: #4287f5;
      }
    </style>
  </defs>
  <path class="cls-1" d="m0,100s0,250,0,250v25c0,69.04,55.96,125,125,125h25s50,0,50,0v-50h-75c-41.42,0-75-33.58-75-75v-25s0-250,0-250H0Z"/>
  <path class="cls-1" d="m250,450s50,0,50,0h0c27.61,0,50-22.39,50-50h0c0-27.61-22.39-50-50-50h-100c-55.23,0-100-44.77-100-100h0c0-55.23,44.77-100,100-100h150v50s-150,0-150,0h0c-27.61,0-50,22.39-50,50h0c0,27.61,22.39,50,50,50h100c55.23,0,100,44.77,100,100h0c0,55.23-44.77,100-100,100h0s-50,0-50,0v-50Z"/>
  <path class="cls-1" d="m500,300V0H0v50s450,0,450,0v450s50,0,50,0v-100h0c27.61,0,50,22.39,50,50h0s0,50,0,50h50s0-50,0-50h0c0-55.23-44.77-100-100-100h0,0c55.23,0,100-44.77,100-100h0s0-100,0-100h-50s0,100,0,100h0c0,27.61-22.39,50-50,50h0Z"/>
  <rect class="cls-1" x="0" y="550" width="600" height="50"/>
</svg>