<?xml version="1.0" encoding="UTF-8"?>
<svg id="Layer_1" data-name="Layer 1" xmlns="http://www.w3.org/2000/svg" viewBox="0 0 800 800">
  <defs>
    <style>
      .cls-1 {
        fill: #fcfdfd;
      }

      .cls-1, .cls-2, .cls-3, .cls-4 {
        fill-rule: evenodd;
        stroke-width: 0px;
      }

      .cls-2 {
        fill: #fdfdfe;
      }

      .cls-3 {
        fill: #2671be;
      }

      .cls-4 {
        fill: #e0eaf5;
      }
    </style>
  </defs>
  <path class="cls-4" d="m469.54,98.16c89.93-.03,179.87-.3,269.81.07,53.47.22,68.54,18.08,57.01,70.89-33.75,154.64-68.26,309.12-103.24,463.49-11.06,48.79-36.47,68.78-87.8,68.93-179.87.54-359.75.59-539.62-.02-58.79-.21-74.26-20.12-61.59-75.84,34.37-151.32,68.92-302.59,103.75-453.81,13.27-57.62,33.21-73.45,91.85-73.61,89.94-.25,179.88-.07,269.82-.1Z"/>
  <path class="cls-3" d="m333.63,683.56c-89.95-.03-179.9.38-269.84-.21-45.61-.3-53.9-11.06-43.64-55.67,34.81-151.29,70.74-302.33,104.77-453.79,9.13-40.62,28.81-58.58,72.34-58.18,179.88,1.67,359.79.54,539.68.72,45.11.04,52.69,9.69,42.56,55.45-32.88,148.54-65.97,297.05-99.64,445.41-12.6,55.53-27.12,66.12-85.53,66.25-86.9.18-173.8.05-260.69.02Z"/>
  <path class="cls-2" d="m410.17,387.06c-6.03-7.07-12.65-15.22-19.66-23-39.76-44.16-79.17-88.66-119.63-132.16-18.52-19.91-24.42-39.24-2.18-58.89,21.98-19.42,43.57-17.7,63.73,4.64,56.14,62.22,112.22,124.5,169.29,185.87,21.31,22.92,16.34,38.5-7.12,55.48-90.08,65.2-179.66,131.11-269.14,197.15-20.11,14.85-39.29,18.56-55.53-3.37-17.92-24.19-1.34-38.58,17.25-52.12,66.49-48.43,132.86-97.04,198.93-146.04,9.2-6.82,22.42-10.8,24.06-27.56Z"/>
  <path class="cls-1" d="m438.65,621.05c-24.22,0-48.47.83-72.63-.27-19.28-.87-30.88-11.64-30.63-31.95.23-19.2,9.91-33.63,29.17-34.15,52.93-1.42,105.93-1.11,158.88-.08,16.83.33,29.25,11.29,29.14,28.82-.12,20.11-10.7,35.69-32.24,36.99-27.14,1.64-54.45.41-81.68.41,0,.07,0,.14,0,.22Z"/>
</svg>