<?xml version="1.0" encoding="UTF-8"?>
<svg id="Layer_1" data-name="Layer 1" xmlns="http://www.w3.org/2000/svg" viewBox="0 0 800 800">
  <defs>
    <style>
      .cls-1 {
        fill: #99f;
      }

      .cls-2 {
        fill: #00005b;
      }
    </style>
  </defs>
  <g id="vlpa">
    <g id="vlpb">
      <g id="vlpc">
        <g id="vlpd">
          <path class="cls-2" d="m141.67,10h516.67c78.33,0,141.67,63.33,141.67,141.67v496.67c0,78.33-63.33,141.67-141.67,141.67H141.67C63.33,790,0,726.67,0,648.33V151.67C0,73.33,63.33,10,141.67,10Z"/>
        </g>
      </g>
    </g>
    <g id="vlpe">
      <g id="vlpf">
        <path class="cls-1" d="m321.33,476.67h-124l-25.33,78.67c-.67,3-3.33,5-6.33,4.67h-62.67c-3.67,0-4.67-2-3.67-6l107.33-307.67c1-3.33,2-6.33,3.33-10.33,1.33-7,2-14.33,2-21.67-.33-1.67,1-3.33,2.67-3.67h86.33c2.33,0,4,1,4.33,2.67l121.67,340c1,3.67,0,5.33-3.33,5.33h-69.67c-2.33.33-4.67-1.33-5.33-3.67l-27.33-80v1.67Zm-104.67-66.33h84.67c-2-7-4.67-15.33-7.67-24-3-9-6-18.67-9-28.67-3.33-10.33-6.33-20.33-9.67-30.67s-6.33-20-9-29.67c-2.67-9.33-5-18-7.33-26h-.67c-3,14.33-6.67,28.67-11.33,43-5,16-10,32.67-15.33,49.33-4.33,17-9.67,32.67-14.67,46.67Z"/>
        <path class="cls-1" d="m623.33,446.67h-105.67c1.33,10.33,4.67,20.67,10.33,29.67,6,9,14.33,16,24.33,20,13.33,5.67,28,8.67,42.67,8.33,11.67-.33,23.33-1.33,34.67-3.67,10.33-1.33,20.33-4,29.67-7.67,1.67-1.33,2.67-.67,2.67,2.67v51c0,1.33-.33,2.67-.67,4-.67,1-1.33,1.67-2.33,2.33-10.67,4.67-21.67,8-33.33,10-15.67,3-31.33,4.33-47.33,4-25.33,0-46.67-4-64-11.67-16.33-7-30.67-18-42-31.67-10.67-13-18.33-27.67-23-43.67-4.67-15.67-7-32-7-48.67,0-18,2.67-35.67,8.33-53,5.33-16.67,13.67-32,25-45.67,11-13.33,24.67-24,40.33-31.67,15.67-7.67,34.33-10.33,55.67-10.33,17.67-.33,35.33,3,51.67,10.33,13.67,6,25.67,15,35,26.67,8.67,11.33,15.67,24,20,38,4.33,13.33,6.33,27,6.33,40.67,0,8-.33,15-.67,21.33-.67,6.33-1,11-1.33,14-.33,2.33-2.33,4.33-4.67,4.33-2,0-5.67.33-11,.67-5.33.67-11.67,1-19.33,1s-15.67-1.33-24.33-1.33h0Zm-105.67-48.67h70.33c8.67,0,15,0,19-.33,2.67-.33,5.33-1,7.67-2.67v-3.33c0-4.33-.67-8.33-2-12.33-6-18.67-23.67-31.33-43.33-30.67-18.33-1-35.67,8.67-44.33,25.33-4,7.67-6.33,15.67-7.33,24Z"/>
      </g>
    </g>
  </g>
</svg>