<?xml version="1.0" encoding="UTF-8"?>
<svg id="Layer_1" data-name="Layer 1" xmlns="http://www.w3.org/2000/svg" viewBox="0 0 800 800">
  <defs>
    <style>
      .cls-1 {
        fill: #001e36;
      }

      .cls-2 {
        fill: #31a8ff;
      }
    </style>
  </defs>
  <g id="Layer_2" data-name="Layer 2">
    <g id="Surfaces">
      <g id="Photo_Surface" data-name="Photo Surface">
        <g id="Outline_no_shadow" data-name="Outline no shadow">
          <path class="cls-1" d="m141.67,10h516.67c78.33,0,141.67,63.33,141.67,141.67v496.67c0,78.33-63.33,141.67-141.67,141.67H141.67C63.33,790,0,726.67,0,648.33V151.67C0,73.33,63.33,10,141.67,10Z"/>
        </g>
      </g>
    </g>
    <g id="Outlined_Mnemonics_Logos" data-name="Outlined Mnemonics Logos">
      <g id="Ps">
        <path class="cls-2" d="m180,557V214c0-2.33,1-3.67,3.33-3.67,5.67,0,11,0,18.67-.33,8-.33,16.33-.33,25.33-.67,9-.33,18.67-.33,29-.67,10.33-.33,20.33-.33,30.33-.33,27.33,0,50,3.33,68.67,10.33,16.67,5.67,32,15,44.67,27.33,10.67,10.67,19,23.67,24.33,38,5,14,7.67,28.33,7.67,43.33,0,28.67-6.67,52.33-20,71-13.33,18.67-32,32.67-53.67,40.67-22.67,8.33-47.67,11.33-75,11.33-8,0-13.33,0-16.67-.33s-8-.33-14.33-.33v107c.33,2.33-1.33,4.33-3.67,4.67h-64.67c-2.67,0-4-1.33-4-4.33Zm72.67-282.33v112c4.67.33,9,.67,13,.67h17.67c13,0,26-2,38.33-6,10.67-3,20-9.33,27.33-17.67,7-8.33,10.33-19.67,10.33-34.33.33-10.33-2.33-20.67-7.67-29.67-5.67-8.67-13.67-15.33-23.33-19-12.33-5-25.67-7-39.33-6.67-8.67,0-16.33,0-22.67.33-6.67-.33-11.33,0-13.67.33h0Z"/>
        <path class="cls-2" d="m640,366.33c-10-5.33-20.67-9-32-11.33-12.33-2.67-24.67-4.33-37.33-4.33-6.67-.33-13.67.67-20,2.33-4.33,1-8,3.33-10.33,6.67-1.67,2.67-2.67,6-2.67,9s1.33,6,3.33,8.67c3,3.67,7,6.67,11.33,9,7.67,4,15.67,7.67,23.67,11,18,6,35.33,14.33,51.33,24.33,11,7,20,16.33,26.33,27.67,5.33,10.67,8,22.33,7.67,34.33.33,15.67-4.33,31.33-13,44.33-9.33,13.33-22.33,23.67-37.33,29.67-16.33,7-36.33,10.67-60.33,10.67-15.33,0-30.33-1.33-45.33-4.33-11.67-2-23.33-5.67-34-10.67-2.33-1.33-4-3.67-3.67-6.33v-58c0-1,.33-2.33,1.33-3,1-.67,2-.33,3,.33,13,7.67,26.67,13,41.33,16.33,12.67,3.33,26,5,39.33,5s21.67-1.67,27.67-4.67c5.33-2.33,9-8,9-14,0-4.67-2.67-9-8-13.33-5.33-4.33-16.33-9.33-32.67-15.67-17-6-32.67-14-47.33-24-10.33-7.33-19-17-25.33-28.33-5.33-10.67-8-22.33-7.67-34,0-14.33,4-28,11.33-40.33,8.33-13.33,20.67-24,35-30.67,15.67-8,35.33-11.67,59-11.67,13.67,0,27.67,1,41.33,3,10,1.33,19.67,4,28.67,7.67,1.33.33,2.67,1.67,3.33,3,.33,1.33.67,2.67.67,4v54.33c0,1.33-.67,2.67-1.67,3.33-3,.67-4.67.67-6,0Z"/>
      </g>
    </g>
  </g>
</svg>