<?xml version="1.0" encoding="UTF-8"?>
<svg id="Layer_1" data-name="Layer 1" xmlns="http://www.w3.org/2000/svg" viewBox="0 0 800 800">
  <defs>
    <style>
      .cls-1 {
        fill: #99f;
      }

      .cls-2 {
        fill: #00005b;
      }
    </style>
  </defs>
  <g id="vlpa">
    <g id="vlpb">
      <g id="vlpc">
        <g id="vlpd">
          <path class="cls-2" d="m141.67,10h516.67c78.33,0,141.67,63.33,141.67,141.67v496.67c0,78.33-63.33,141.67-141.67,141.67H141.67C63.33,790,0,726.67,0,648.33V151.67C0,73.33,63.33,10,141.67,10Z"/>
        </g>
      </g>
    </g>
    <g id="vlpe">
      <g id="vlpf">
        <path class="cls-1" d="m190,556.67V213.33c0-2.33,1-3.67,3.33-3.67,5.67,0,11,0,18.67-.33,8-.33,16.33-.33,25.33-.67s18.67-.33,29-.67c10.33-.33,20.33-.33,30.33-.33,27.33,0,50,3.33,68.67,10.33,16.67,5.67,32,15,44.67,27.33,10.67,10.67,19,23.67,24.33,38,5,14,7.67,28.33,7.67,43.33,0,28.67-6.67,52.33-20,71-13.33,18.67-32,32.67-53.67,40.67-22.67,8.33-47.67,11.33-75,11.33-8,0-13.33,0-16.67-.33s-8-.33-14.33-.33v107c.33,2.33-1.33,4.33-3.67,4.67h-64.67c-2.67,0-4-1.33-4-4.33v.33Zm72.67-282.33v112c4.67.33,9,.67,13,.67h17.67c13,0,26-2,38.33-6,10.67-3,20-9.33,27.33-17.67,7-8.33,10.33-19.67,10.33-34.33.33-10.33-2.33-20.67-7.67-29.67-5.67-8.67-13.67-15.33-23.33-19-12.33-5-25.67-7-39.33-6.67-8.67,0-16.33,0-22.67.33-6.67-.33-11.33,0-13.67.33h0Z"/>
        <path class="cls-1" d="m490,294h58.33c3.33,0,6,2.33,7,5.33,1,2.67,1.67,5.33,2,8.33.67,3.33,1.33,7,1.67,10.33.33,3.67.67,7.67.67,12,10-11.67,22-21.33,35.67-28.67,15.33-8.67,33-13,50.67-13,2.33-.33,4.33,1.33,4.67,3.67v66.33c0,2.67-1.67,3.67-5.33,3.67-12-.33-24.33.67-36,3.33-9.67,2-19,5-28,9-6.33,3-12.33,7-17,12.33v170c0,3.33-1.33,4.67-4.33,4.67h-65.67c-2.67.33-5-1.33-5.33-4v-186c0-8,0-16.33-.33-25-.33-8.67-.33-17.33-.67-26,0-7.67-.67-15-1.33-22.67-.33-1.67.67-3.33,2.33-3.67,0-.33.67-.33,1,0h0Z"/>
      </g>
    </g>
  </g>
</svg>