<?xml version="1.0" encoding="UTF-8"?>
<svg id="Layer_1" data-name="Layer 1" xmlns="http://www.w3.org/2000/svg" viewBox="0 0 800 800">
  <defs>
    <style>
      .cls-1 {
        fill: #ff9a00;
      }

      .cls-2 {
        fill: #300;
      }
    </style>
  </defs>
  <path class="cls-2" d="m141.67,10h516.67c78.33,0,141.67,63.33,141.67,141.67v496.67c0,78.33-63.33,141.67-141.67,141.67H141.67C63.33,790,0,726.67,0,648.33V151.67C0,73.33,63.33,10,141.67,10Z"/>
  <path class="cls-1" d="m386.67,476.67h-124l-25.33,78.33c-.67,3-3.33,5-6.33,4.67h-62.67c-3.67,0-4.67-2-3.67-6l107.33-309c1-3.33,2-7,3.33-11,1.33-7,2-14.33,2-21.67-.33-1.67,1-3.33,2.67-3.67h86.33c2.67,0,4,1,4.33,2.67l121.67,343.33c1,3.67,0,5.33-3.33,5.33h-69.67c-2.33.33-4.67-1.33-5.33-3.67l-27.33-79.33Zm-104.67-67.67h84.67c-2-7-4.67-15.33-7.67-24-3-9-6-18.67-9-28.67-3.33-10.33-6.33-20.33-9.67-30.67-3.33-10.33-6.33-20-9-29.67-2.67-9.33-5-18-7.33-26h-.67c-3,14.33-6.67,28.67-11.33,43-5,16-10,32.67-15.33,49.33-4.67,17-9.67,32.67-14.67,46.67Zm284.67-142.33c-11,.33-21.67-4-29.67-11.67-7.67-8.33-11.67-19.33-11.33-30.67-.33-11.33,4-22,12-29.67,8-7.67,18.67-11.67,29.67-11.67,13,0,23,4,30.33,11.67,7.33,8,11.33,18.67,11,29.67.33,11.33-3.67,22.33-11.67,30.67-7.67,8-19,12.33-30.33,11.67h0Zm-37.33,289.33v-256.67c0-3.33,1.33-4.67,4.33-4.67h66c3,0,4.33,1.67,4.33,4.67v256.67c0,3.67-1.33,5.33-4.33,5.33h-65.33c-3.33,0-5-2-5-5.33Z"/>
</svg>