<?xml version="1.0" encoding="UTF-8"?>
<svg id="Layer_1" data-name="Layer 1" xmlns="http://www.w3.org/2000/svg" viewBox="0 0 800 800">
  <defs>
    <style>
      .cls-1 {
        fill: #49021f;
      }

      .cls-2 {
        fill: #f36;
      }
    </style>
  </defs>
  <path class="cls-1" d="m141.67,10h516.67c78.33,0,141.67,63.33,141.67,141.67v496.67c0,78.33-63.33,141.67-141.67,141.67H141.67C63.33,790,0,726.67,0,648.33V151.67C0,73.33,63.33,10,141.67,10Z"/>
  <g id="vlpa">
    <g id="vlpb">
      <path class="cls-2" d="m290.67,214v343.33c0,3.67-1.67,5.33-4.67,5.33h-65.33c-3,0-4.33-1.67-4.33-5.33V214c0-3,1.67-4.33,4.67-4.33h65c2-.33,4,1,4.33,3.33.33.33.33.67.33,1Z"/>
      <path class="cls-2" d="m483.33,566.67c-24.67.33-49.33-4.67-71.67-15-21-9.67-38.33-25.67-50.33-45.33-12.33-20.33-18.33-45.67-18.33-76-.33-24.67,6-49,18.33-70.33,12.67-21.67,31-39.67,53-51.67,23.33-13,51.33-19.33,84.33-19.33,1.67,0,4,0,7,.33s6.33.33,10.33.67v-105.33c0-2.33,1-3.67,3.33-3.67h67.67c1.67-.33,3,1,3.33,2.33v318c0,6,.33,12.67.67,20,.67,7,1,13.67,1.33,19.33,0,2.33-1,4.33-3.33,5.33-17.33,7.33-35.67,12.67-54.33,16-16.67,3-34,4.67-51.33,4.67h0Zm32.67-66.67v-146.67c-3-.67-6-1.33-9-1.67-3.67-.33-7.33-.67-11-.67-13,0-26,2.67-37.67,8.67-11.33,5.67-21,14-28.33,24.67-7.33,10.67-11,25-11,42.33-.33,11.67,1.67,23.33,5.67,34.33,3.33,9,8.33,17,15,23.67,6.33,6,14,10.67,22.67,13.33,9,3,18.33,4.33,27.67,4.33,5,0,9.67-.33,14-.67,4.33.33,8.33-.33,12-1.67h0Z"/>
    </g>
  </g>
</svg>