<?xml version="1.0" encoding="UTF-8"?>
<svg id="Layer_1" data-name="Layer 1" xmlns="http://www.w3.org/2000/svg" viewBox="0 0 800 800">
  <defs>
    <style>
      .cls-1 {
        fill: none;
      }

      .cls-1, .cls-2, .cls-3, .cls-4 {
        stroke-width: 0px;
      }

      .cls-2 {
        fill: #fff;
      }

      .cls-3 {
        fill: #283037;
      }

      .cls-4 {
        fill: #4da825;
      }
    </style>
  </defs>
  <rect class="cls-1" x="-.2" width="800" height="800"/>
  <path class="cls-2" d="m701.08,163.34L448.52,13.42c-30.14-17.9-67.29-17.9-97.44,0L98.51,163.34c-30.14,17.89-48.71,50.96-48.71,86.75v299.84c0,35.78,18.57,68.86,48.72,86.75l252.56,149.9c15.08,8.95,31.89,13.41,48.72,13.41s33.64-4.47,48.71-13.41l252.57-149.9c30.14-17.9,48.72-50.98,48.72-86.75V250.09c0-35.79-18.58-68.86-48.72-86.75Z"/>
  <path class="cls-2" d="m701.08,163.34L448.52,13.42c-15.07-8.95-31.9-13.42-48.72-13.42s-33.65,4.47-48.72,13.42L98.51,163.34c-30.14,17.89-48.71,50.96-48.71,86.75v299.84c0,35.78,18.57,68.86,48.72,86.75l252.56,149.9c15.08,8.95,31.89,13.41,48.72,13.41s33.64-4.47,48.71-13.41l252.57-149.9c30.14-17.9,48.72-50.98,48.72-86.75V250.09c0-35.79-18.58-68.86-48.72-86.75Zm-341.17,607.89l-252.56-149.9c-24.7-14.66-40.05-42.02-40.05-71.41V250.09c0-29.38,15.34-56.74,40.04-71.4L359.91,28.77c12.11-7.19,25.91-10.99,39.89-10.99s27.78,3.8,39.89,10.99l252.57,149.92c20.81,12.35,34.85,33.76,38.8,57.75-8.37-17.87-27.26-22.74-49.28-9.88l-238.94,147.58c-29.8,17.42-51.77,36.97-51.78,72.89v294.42c-.02,21.51,8.67,35.44,22.01,39.48-4.38.76-8.8,1.29-13.27,1.29-13.99,0-27.78-3.8-39.89-10.99Z"/>
  <path class="cls-4" d="m634.87,578.92l-62.9,37.64c-1.67.97-2.89,2.07-2.89,4.07v16.45c0,2.01,1.35,2.85,3.01,1.87l63.86-38.82c1.67-.97,1.92-2.83,1.92-4.84v-14.51c0-2.01-1.35-2.84-3.01-1.87Z"/>
  <path class="cls-3" d="m500.95,440.39c2.04-1.03,3.72.23,3.74,2.9l.21,21.76c9.11-3.62,17.02-4.6,24.19-2.94,1.56.41,2.24,2.53,1.6,5.04l-4.79,19.28c-.37,1.46-1.19,2.93-2.18,3.85-.41.41-.84.72-1.26.93-.64.32-1.28.43-1.88.31-3.28-.74-11.05-2.44-23.29,3.75-12.85,6.5-17.33,17.66-17.24,25.94.1,9.89,5.18,12.89,22.69,13.19,23.34.39,33.42,10.58,33.66,34.08.24,23.08-12.08,47.86-30.93,63.05l.42,21.54c.03,2.6-1.66,5.56-3.7,6.6l-12.75,7.34c-2.04,1.03-3.72-.23-3.74-2.83l-.22-21.19c-10.93,4.54-22,5.64-29.07,2.8-1.34-.52-1.91-2.49-1.38-4.73l4.62-19.47c.37-1.53,1.19-3.07,2.29-4.05.39-.37.8-.67,1.2-.87.73-.37,1.45-.45,2.06-.22,7.62,2.56,17.36,1.37,26.73-3.38,11.91-6.03,19.87-18.17,19.75-30.24-.11-10.94-6.04-15.49-20.45-15.6-18.34.05-35.45-3.56-35.73-30.57-.23-22.24,11.33-45.37,29.64-60l-.23-21.75c-.03-2.67,1.6-5.61,3.7-6.67l12.35-7.88Z"/>
</svg>