<?xml version="1.0" encoding="UTF-8"?>
<svg id="Layer_1" data-name="Layer 1" xmlns="http://www.w3.org/2000/svg" viewBox="0 0 800 800">
  <defs>
    <style>
      .cls-1 {
        fill: #fff;
      }

      .cls-2 {
        fill: #265787;
      }

      .cls-3 {
        fill: #ea7600;
      }
    </style>
  </defs>
  <path class="cls-1" d="m299.55,444.28c2.91-51.89,28.28-97.74,66.71-130.13,37.61-31.85,88.13-51.34,143.58-51.34s105.7,19.47,143.31,51.34c38.44,32.4,63.69,78.24,66.71,130.13,2.91,53.26-18.53,102.95-56.01,139.74-38.43,37.34-92.79,60.95-154.02,60.95s-115.85-23.45-154.02-60.95c-37.61-36.79-59.03-86.2-56.01-139.46l-.27-.27Z"/>
  <g>
    <path class="cls-2" d="m414.58,437.92c1.5-26.66,14.53-50.22,34.28-66.87,19.33-16.37,45.29-26.38,73.79-26.38s54.32,10,73.64,26.38c19.75,16.65,32.73,40.21,34.28,66.87,1.5,27.37-9.52,52.91-28.78,71.81-19.75,19.19-47.69,31.32-79.15,31.32s-59.54-12.05-79.15-31.32c-19.33-18.9-30.33-44.3-28.78-71.67l-.14-.14Z"/>
    <path class="cls-3" d="m245.28,494.36c.18,10.44,3.51,30.76,8.51,46.56,10.5,33.58,28.36,64.62,53.05,91.84,25.39,28.08,56.71,50.65,92.83,66.73,37.95,16.79,79.15,25.39,121.89,25.39,42.75-.06,83.94-8.8,121.89-25.82,36.12-16.22,67.44-38.8,92.83-67.01,24.83-27.51,42.61-58.55,53.05-92.13,5.29-16.93,8.63-34.14,9.97-51.35,1.31-16.93.76-34-1.65-51.07-4.71-33.15-16.22-64.33-33.86-92.55-16.08-26.1-36.96-48.81-61.79-68l.06-.04-249.71-191.87c-.23-.17-.41-.35-.65-.51-16.37-12.58-44.02-12.54-61.93.07-18.2,12.75-20.32,33.86-4.09,47.12l-.07.07,104.26,84.79-317.43.34h-.42c-26.24.03-51.49,17.21-56.43,39.08-5.14,22.15,12.7,40.63,40.07,40.63l-.04.1,160.83-.31L28.62,516.51c-.37.27-.76.55-1.1.82-27.09,20.74-35.83,55.3-18.76,77.03,17.35,22.15,54.18,22.29,81.55.13l156.6-128.38s-2.29,17.35-2.1,27.65l.48.61Zm403.49,57.98c-32.31,32.87-77.59,51.64-126.41,51.64-48.96.08-94.24-18.34-126.55-51.21-15.8-16.08-27.37-34.42-34.56-54.03-7.01-19.33-9.73-39.79-7.93-60.38,1.71-20.17,7.72-39.5,17.35-56.86,9.42-17.07,22.43-32.59,38.37-45.71,31.46-25.54,71.39-39.5,113.15-39.5,41.9-.06,81.83,13.67,113.29,39.22,15.94,13.04,28.92,28.5,38.37,45.57,9.64,17.35,15.66,36.54,17.35,56.86,1.78,20.6-.95,41.05-7.96,60.38-7.17,19.75-18.76,38.09-34.57,54.18l.08-.14Z"/>
  </g>
</svg>