<?xml version="1.0" encoding="UTF-8"?>
<svg id="Layer_1" data-name="Layer 1" xmlns="http://www.w3.org/2000/svg" viewBox="0 0 800 800">
  <defs>
    <style>
      .cls-1 {
        fill: #004482;
      }

      .cls-1, .cls-2, .cls-3, .cls-4 {
        fill-rule: evenodd;
        stroke-width: 0px;
      }

      .cls-2 {
        fill: #659ad2;
      }

      .cls-3 {
        fill: #fff;
      }

      .cls-4 {
        fill: #00599c;
      }
    </style>
  </defs>
  <path id="path2" class="cls-1" d="m379.1,5.45c12.93-7.26,28.86-7.26,41.77,0,63.9,35.87,256.21,143.83,320.13,179.7,12.93,7.24,20.9,20.65,20.9,35.16v359.37c0,14.51-7.96,27.92-20.9,35.18-63.9,35.87-256.21,143.83-320.13,179.7-12.93,7.26-28.86,7.26-41.77,0-63.9-35.87-256.21-143.83-320.13-179.7-12.91-7.26-20.88-20.65-20.88-35.16V220.33c0-14.51,7.96-27.92,20.9-35.18C122.88,149.28,315.22,41.32,379.1,5.45h0Z"/>
  <path id="path4" class="cls-2" d="m43.89,598.18c-5.07-6.78-5.79-13.22-5.79-21.89V218.98c0-14.44,7.94-27.77,20.84-34.97C122.61,148.35,314.27,41.01,377.94,5.34c12.9-7.22,30.36-7.07,43.26.15,63.68,35.66,254.69,142.08,318.36,177.73,5.14,2.9,9.07,6.38,12.57,10.97L43.89,598.18Z"/>
  <path id="path6" class="cls-3" d="m400,133.34c147.18,0,266.67,119.49,266.67,266.67s-119.49,266.67-266.67,266.67-266.67-119.49-266.67-266.67S252.82,133.34,400,133.34Zm0,133.33c73.58,0,133.33,59.73,133.33,133.33s-59.75,133.33-133.33,133.33-133.33-59.75-133.33-133.33,59.73-133.33,133.33-133.33Z"/>
  <path id="path8" class="cls-4" d="m752.09,194.39c9.83,9.2,9.64,23.07,9.64,33.98,0,72.29-.61,277.89.17,350.17.08,7.54-2.42,15.49-6.15,21.47l-363.5-200,359.85-205.62Z"/>
</svg>