<?xml version="1.0" encoding="UTF-8"?>
<svg id="Layer_1" data-name="Layer 1" xmlns="http://www.w3.org/2000/svg" viewBox="0 0 800 800">
  <defs>
    <style>
      .cls-1 {
        fill: #659ad2;
      }

      .cls-2 {
        fill: #fff;
      }

      .cls-3 {
        fill: #004482;
      }

      .cls-4 {
        fill: #00599c;
      }
    </style>
  </defs>
  <path class="cls-4" d="m746.41,600c5.58-9.66,9.04-20.55,9.04-30.33V230.32c0-9.78-3.46-20.66-9.04-30.32l-346.41,200,346.41,200Z"/>
  <path class="cls-3" d="m430.78,792.67l293.89-169.67c8.47-4.89,16.16-13.33,21.74-22.99l-346.41-200L53.59,600c5.58,9.66,13.27,18.1,21.74,22.99l293.89,169.67c16.93,9.78,44.64,9.78,61.57,0Z"/>
  <path class="cls-1" d="m746.41,200c-5.58-9.66-13.28-18.1-21.74-22.99L430.78,7.33c-16.93-9.78-44.64-9.78-61.57,0L75.33,177.01c-16.93,9.77-30.78,33.77-30.78,53.32v339.35c0,9.78,3.46,20.66,9.04,30.33l346.41-200,346.41-200Z"/>
  <path class="cls-2" d="m400,636.97c-130.66,0-236.97-106.3-236.97-236.97s106.3-236.97,236.97-236.97c84.31,0,162.95,45.37,205.21,118.41l-102.55,59.34c-21.15-36.56-60.49-59.27-102.66-59.27-65.33,0-118.48,53.15-118.48,118.48s53.15,118.48,118.48,118.48c42.17,0,81.51-22.71,102.67-59.28l102.55,59.34c-42.26,73.04-120.9,118.42-205.22,118.42Z"/>
  <polygon class="cls-2" points="636.97 386.84 610.64 386.84 610.64 360.51 584.31 360.51 584.31 386.84 557.98 386.84 557.98 413.17 584.31 413.17 584.31 439.5 610.64 439.5 610.64 413.17 636.97 413.17 636.97 386.84"/>
  <polygon class="cls-2" points="735.71 386.84 709.37 386.84 709.37 360.51 683.05 360.51 683.05 386.84 656.72 386.84 656.72 413.17 683.05 413.17 683.05 439.5 709.37 439.5 709.37 413.17 735.71 413.17 735.71 386.84"/>
</svg>