<?xml version="1.0" encoding="UTF-8"?>
<svg id="Layer_1" data-name="Layer 1" xmlns="http://www.w3.org/2000/svg" viewBox="0 0 800 800">
  <defs>
    <style>
      .cls-1 {
        fill: #fff;
      }

      .cls-2 {
        fill: #390091;
      }

      .cls-3 {
        fill: #a179dc;
      }

      .cls-4 {
        fill: #280068;
      }
    </style>
  </defs>
  <path class="cls-3" d="m755.86,235.2c0-13.45-2.88-25.34-8.7-35.54-5.71-10.03-14.27-18.44-25.75-25.09-94.76-54.64-189.61-109.11-284.34-163.81-25.54-14.74-50.3-14.2-75.65.75-37.72,22.24-226.55,130.43-282.83,163.02-23.17,13.42-34.45,33.95-34.46,60.63-.04,109.88,0,219.77-.04,329.65,0,13.16,2.76,24.81,8.32,34.86,5.72,10.34,14.4,18.97,26.14,25.77,56.27,32.59,245.14,140.77,282.85,163.02,25.36,14.96,50.12,15.5,75.67.75,94.73-54.7,189.59-109.17,284.36-163.81,11.74-6.8,20.42-15.44,26.14-25.77,5.55-10.05,8.32-21.7,8.32-34.86,0,0,0-219.71-.04-329.59"/>
  <path class="cls-4" d="m401.09,398.93L52.42,599.68c5.72,10.34,14.4,18.97,26.14,25.77,56.27,32.59,245.14,140.77,282.85,163.02,25.36,14.96,50.12,15.5,75.67.75,94.73-54.7,189.59-109.17,284.36-163.81,11.74-6.8,20.42-15.44,26.14-25.77l-346.49-200.73Z"/>
  <path class="cls-2" d="m755.86,235.2c0-13.45-2.88-25.34-8.7-35.54l-346.07,199.27,346.49,200.72c5.55-10.05,8.31-21.7,8.32-34.86,0,0,0-219.71-.04-329.59"/>
  <g>
    <path class="cls-1" d="m606.37,323.88v37.53h37.53v-37.53h18.76v37.53h37.53v18.76h-37.53v37.52h37.53v18.76h-37.53v37.53h-18.76v-37.53h-37.53v37.53h-18.76v-37.53h-37.52v-18.76h37.52v-37.52h-37.52v-18.76h37.52v-37.53h18.76Zm37.53,56.29h-37.53v37.53h37.53v-37.53Z"/>
    <path class="cls-1" d="m401.85,135.42c97.88,0,183.33,53.15,229.1,132.17l-.45-.76-115.16,66.31c-22.69-38.41-64.28-64.34-111.99-64.87h-1.5c-72.76,0-131.74,58.98-131.74,131.74-.02,22.93,5.97,45.47,17.38,65.36,22.71,39.64,65.4,66.38,114.37,66.38s92.21-27.08,114.8-67.15l-.55.96,114.98,66.61c-45.27,78.34-129.55,131.33-226.29,132.39l-2.95.02c-98.19,0-183.88-53.48-229.54-132.91-22.29-38.78-35.04-83.73-35.04-131.67,0-146.12,118.45-264.58,264.58-264.58h0Z"/>
  </g>
</svg>