<?xml version="1.0" encoding="UTF-8"?>
<svg id="Layer_1" data-name="Layer 1" xmlns="http://www.w3.org/2000/svg" viewBox="0 0 800 800">
  <defs>
    <style>
      .cls-1 {
        fill: #264de4;
      }

      .cls-2 {
        fill: #fff;
      }

      .cls-3 {
        fill: #2965f1;
      }

      .cls-4 {
        fill: #ebebeb;
      }
    </style>
  </defs>
  <path class="cls-1" d="m111.5,720.03L47.3,0h705.4l-64.26,719.92-288.87,80.08-288.07-79.97Z"/>
  <path class="cls-3" d="m633.42,674.07l54.92-615.2h-288.34v679.92l233.42-64.71Z"/>
  <path class="cls-4" d="m194.47,325.92l7.91,88.31h197.62v-88.31h-205.53Zm-7.88-90.43h213.41v-88.31h-221.44l8.03,88.31Zm213.41,319.78l-.39.1-98.35-26.56-6.29-70.43h-88.65l12.37,138.66,180.89,50.22.41-.11v-91.88Z"/>
  <path class="cls-2" d="m399.7,325.92v88.31h108.74l-10.25,114.53-98.49,26.58v91.87l181.04-50.17,1.33-14.92,20.75-232.49,2.16-23.71,15.94-178.74h-221.21v88.31h124.44l-8.04,90.43h-116.4Z"/>
</svg>