<?xml version="1.0" encoding="UTF-8"?>
<svg id="Layer_1" data-name="Layer 1" xmlns="http://www.w3.org/2000/svg" viewBox="0 0 800 800">
  <defs>
    <style>
      .cls-1 {
        fill: #9feaf9;
      }

      .cls-1, .cls-2 {
        stroke-width: 0px;
      }

      .cls-2 {
        fill: #2b2e3a;
      }
    </style>
  </defs>
  <circle class="cls-2" cx="400" cy="400" r="400"/>
  <g>
    <path class="cls-1" d="m314.07,224.03c-81.27-14.8-145.52.69-171.13,45.05-19.11,33.1-13.65,76.98,13.25,123.89,2.2,4.04,7.27,5.53,11.31,3.33,4.04-2.2,5.53-7.27,3.33-11.31-.06-.11-.12-.21-.18-.31-24.22-42.26-28.94-80.13-13.27-107.27,21.27-36.85,78.59-50.67,153.71-36.98,4.54.76,8.83-2.31,9.59-6.85.74-4.44-2.18-8.67-6.6-9.54Zm-115.62,225.96c32.86,36.11,75.55,69.98,124.24,98.09,117.88,68.06,243.38,86.25,305.23,44.08,3.85-2.53,4.92-7.69,2.39-11.54-2.53-3.85-7.69-4.92-11.54-2.39-.08.05-.16.11-.24.16-55.36,37.74-174.57,20.46-287.51-44.74-47.23-27.27-88.57-60.07-120.24-94.88-3.08-3.42-8.35-3.69-11.77-.6-3.42,3.08-3.69,8.35-.6,11.77.01.02.03.03.05.05Z"/>
    <path class="cls-1" d="m608.19,439.85c53.21-62.86,71.79-126.09,46.23-170.35-18.8-32.57-58.56-49.77-111.39-50.46-4.6,0-8.33,3.74-8.32,8.35,0,4.51,3.6,8.2,8.11,8.32,47.52.62,81.77,15.43,97.18,42.13,21.22,36.77,4.66,93.15-44.53,151.25-3.01,3.48-2.64,8.74.84,11.76,3.48,3.01,8.74,2.64,11.76-.84.04-.05.08-.1.12-.14Zm-136.75-213.05c-48.11,10.31-99.32,30.47-148.51,58.86-121.69,70.26-201.08,173.86-190.05,248.98.61,4.56,4.81,7.76,9.37,7.15,4.56-.61,7.76-4.81,7.15-9.37,0-.07-.02-.13-.03-.2-9.79-66.7,65.46-164.9,181.9-232.13,47.71-27.55,97.3-47.06,143.66-57,4.52-.89,7.46-5.27,6.56-9.79s-5.27-7.46-9.79-6.56c-.09.02-.18.04-.27.06h0Z"/>
    <path class="cls-1" d="m274.28,586.73c27.82,77.69,73.34,125.52,124.52,125.52,37.33,0,71.86-25.45,98.79-70.24,2.43-3.91,1.23-9.05-2.68-11.48-3.91-2.43-9.05-1.23-11.48,2.68-.04.07-.08.14-.12.21-24.2,40.26-53.93,62.16-84.51,62.16-42.52,0-83.11-42.66-108.83-114.47-1.46-4.36-6.19-6.72-10.55-5.26-4.36,1.46-6.72,6.19-5.26,10.55.04.11.07.22.12.32h0Zm254.13-15.2c14.41-46.02,22.14-99.12,22.14-154.45,0-138.06-48.32-257.07-117.15-287.63-4.25-1.78-9.13.22-10.91,4.47-1.73,4.12.1,8.87,4.14,10.76,61.38,27.26,107.24,140.21,107.24,272.4,0,53.68-7.49,105.09-21.37,149.47-1.44,4.37.94,9.08,5.31,10.52s9.08-.94,10.52-5.31c.02-.08.05-.15.07-.23h0Zm156.95-8.16c0-22.03-17.86-39.88-39.88-39.88s-39.88,17.86-39.88,39.88,17.86,39.88,39.88,39.88,39.88-17.86,39.88-39.88Zm-16.67,0c0,12.82-10.4,23.22-23.22,23.22s-23.22-10.4-23.22-23.22,10.4-23.22,23.22-23.22,23.22,10.4,23.22,23.22Zm-517.14,39.88c22.03,0,39.89-17.86,39.89-39.88s-17.86-39.88-39.89-39.88-39.88,17.86-39.88,39.88,17.86,39.88,39.88,39.88Zm0-16.67c-12.82,0-23.22-10.4-23.22-23.22s10.4-23.22,23.22-23.22,23.22,10.4,23.22,23.22-10.4,23.22-23.22,23.22Z"/>
    <path class="cls-1" d="m398.8,170.14c22.03,0,39.88-17.86,39.88-39.88s-17.86-39.88-39.88-39.88-39.88,17.86-39.88,39.88,17.86,39.88,39.88,39.88Zm0-16.67c-12.82,0-23.22-10.4-23.22-23.22s10.4-23.22,23.22-23.22,23.22,10.4,23.22,23.22-10.4,23.22-23.22,23.22Zm6.09,291.82c-15.58,3.37-30.92-6.53-34.3-22.11-3.36-15.58,6.54-30.93,22.11-34.3,15.58-3.37,30.92,6.53,34.3,22.11,3.37,15.58-6.53,30.93-22.12,34.3Z"/>
  </g>
</svg>