<?xml version="1.0" encoding="UTF-8"?>
<svg id="Layer_1" data-name="Layer 1" xmlns="http://www.w3.org/2000/svg" viewBox="0 0 800 800">
  <defs>
    <style>
      .cls-1 {
        fill: #fff;
      }

      .cls-2 {
        fill: #e34f26;
      }

      .cls-3 {
        fill: #ebebeb;
      }

      .cls-4 {
        fill: #ef652a;
      }
    </style>
  </defs>
  <path class="cls-2" d="m111.72,718.75L47.66,0h704.69l-64.06,718.75-289.06,81.25"/>
  <path class="cls-4" d="m400.78,737.5l232.81-64.06,54.69-615.62h-287.5"/>
  <path class="cls-3" d="m400.78,325h-117.19l-7.81-90.62h125v-87.5h-221.88l1.56,23.44,21.88,243.75h198.44v-89.06Zm0,229.69h-1.56l-98.44-26.56-6.25-70.31h-87.5l10.94,139.06,181.25,50h1.56v-92.19Z"/>
  <path class="cls-1" d="m399.22,325v89.06h109.38l-10.94,114.06-98.44,26.56v92.19l181.25-50,1.56-15.62,20.31-232.81,3.12-23.44h-206.25Zm0-178.12v87.5h214.06l1.56-18.75,4.69-45.31,1.56-23.44h-221.88Z"/>
</svg>