<svg width="372" height="539" xmlns="http://www.w3.org/2000/svg" xmlns:undefined="http://www.inkscape.org/namespaces/inkscape" version="1.0" xml:space="preserve" stroke="null">
 <g id="Layer_1">
  <title>Layer 1</title>
  <g stroke="null">
   <metadata stroke="null" id="svg_17">image/svg+xml</metadata>

   <g stroke="null" transform="matrix(2.46482 0 0 2.46482 -1695.46 -2720.8)" id="svg_2">
    <g stroke="null" id="svg_3" transform="matrix(1.58497 0 0 1.58497 -33.1599 -17)">
     <g stroke="null" id="svg_4">
      <path stroke="null" fill="#009688"  id="svg_15" d="m519.3612,721.47172l0,25.966l29.179,74.943c0,0 8.908,18.303 -16.57,22.763l-58.123,0c0,0 -23.747,-2.478 -18.054,-21.281l30.664,-76.424l0,-25.967l32.904,0z"/>
      <g stroke="null" id="svg_12">
       <g stroke="null" id="svg_13">
        <path stroke="null" fill="#004d40"  id="svg_14" d="m519.9772,718.45272l-35.003,0c-2.835,0 -5.141,-2.522 -5.141,-5.638c0,-3.118 2.305,-5.64 5.141,-5.64l35.003,0c2.848,0 5.15,2.522 5.15,5.64c0,3.116 -2.303,5.638 -5.15,5.638z"/>
       </g>
      </g>
      <path stroke="null" fill="#ffffff"  id="svg_11" d="m510.7432,763.86872c3.756,0 6.819,3.67 6.819,8.215c0,4.525 -3.065,8.204 -6.819,8.204c-3.765,0 -6.819,-3.679 -6.819,-8.204c0,-4.547 3.054,-8.215 6.819,-8.215z"/>
      <ellipse stroke="null" fill="#ffffff" id="svg_10" ry="6.928" rx="5.748" cy="778.25172" cx="489.8102"/>
      <path stroke="null" fill="#004d40"  id="svg_9" d="m521.9562,745.71672l0,-12.35c0,0 15.661,-3.453 23.488,14.763c0,-0.001 -12.198,8.887 -23.488,-2.413z"/>
      <path stroke="null" fill="#004d40"  id="svg_8" d="m483.5982,745.71672l0,-12.35c0,0 -15.663,-3.453 -23.486,14.763c0,-0.001 12.186,8.887 23.486,-2.413z"/>
      <path stroke="null" fill="#ffffff"  id="svg_7" d="m531.3722,796.82472c-25.467,-7.9 -46.878,-3.659 -57.343,-0.453l-10.553,25.401c-4.751,15.164 15.087,17.157 15.087,17.157l48.545,0c21.279,-3.595 13.842,-18.347 13.842,-18.347l-9.578,-23.758z"/>
      <path stroke="null" fill="#004d40"  id="svg_6" d="m494.6702,806.26272c0,2.739 -3.681,4.967 -8.215,4.967c-4.534,0 -8.204,-2.229 -8.204,-4.967c0,-2.75 3.67,-4.97 8.204,-4.97c4.536,0.002 8.215,2.22 8.215,4.97z"/>
      <path stroke="null" fill="#004d40"  id="svg_5" d="m523.8842,806.26272c0,2.739 -3.681,4.967 -8.204,4.967c-4.547,0 -8.215,-2.229 -8.215,-4.967c0,-2.75 3.668,-4.97 8.215,-4.97c4.525,0.002 8.204,2.22 8.204,4.97z"/>
     </g>
    </g>
   </g>
  </g>
 </g>

</svg>