<?xml version="1.0" encoding="UTF-8"?>
<svg id="Layer_1" data-name="Layer 1" xmlns="http://www.w3.org/2000/svg" viewBox="0 0 800 800">
  <defs>
    <style>
      .cls-1 {
        fill: #f0db4f;
      }

      .cls-2 {
        fill: #323330;
      }
    </style>
  </defs>
  <path class="cls-1" d="m0,0h800v800H0V0Z"/>
  <path class="cls-2" d="m734.52,609.2c-5.86-36.5-29.66-67.15-100.15-95.74-24.49-11.25-51.79-19.31-59.92-37.87-2.89-10.8-3.27-16.88-1.44-23.42,5.25-21.22,30.57-27.83,50.65-21.75,12.93,4.33,25.17,14.3,32.55,30.19,34.52-22.36,34.45-22.21,58.56-37.57-8.82-13.69-13.54-20-19.32-25.86-20.76-23.19-49.05-35.13-94.3-34.22-7.83.99-15.74,2.05-23.57,3.04-22.58,5.7-44.11,17.57-56.73,33.46-37.87,42.97-27.07,118.17,19.01,149.13,45.4,34.07,112.09,41.83,120.61,73.69,8.29,39.01-28.67,51.63-65.4,47.15-27.07-5.63-42.13-19.39-58.4-44.41q-29.96,17.34-60.76,35.06c7.3,15.97,14.98,23.19,27.22,37.03,57.95,58.78,202.97,55.89,228.97-33.08,1.06-3.04,8.06-23.42,2.43-54.83Zm-299.62-241.52h-74.83c0,64.64-.3,128.82-.3,193.46,0,41.14,2.13,78.86-4.56,90.42-10.95,22.74-39.32,19.92-52.24,15.51-13.16-6.46-19.85-15.67-27.6-28.67-2.13-3.73-3.73-6.62-4.26-6.84-20.3,12.4-40.53,24.87-60.84,37.26,10.11,20.76,25.02,38.78,44.11,50.49,28.52,17.11,66.84,22.36,106.92,13.16,26.08-7.6,48.59-23.35,60.38-47.3,17.03-31.41,13.38-69.43,13.23-111.48.38-68.59,0-137.19,0-206.01h0Z"/>
</svg>