<?xml version="1.0" encoding="UTF-8"?>
<svg id="Layer_1" data-name="Layer 1" xmlns="http://www.w3.org/2000/svg" viewBox="0 0 800 800">
  <defs>
    <style>
      .cls-1 {
        fill: #fff;
      }

      .cls-2 {
        fill: gray;
      }

      .cls-3 {
        fill: navy;
      }
    </style>
  </defs>
  <path class="cls-3" d="m705.97,400.08c0-168.88-137.1-305.98-305.98-305.98S94.02,231.19,94.02,400.08s137.1,305.98,305.98,305.98,305.98-137.1,305.98-305.98"/>
  <path class="cls-1" d="m616.38,273.29c0-49.45-40.15-89.6-89.6-89.6s-89.6,40.15-89.6,89.6,40.15,89.6,89.6,89.6,89.6-40.15,89.6-89.6"/>
  <path class="cls-3" d="m795.57,94.01c0-49.45-40.15-89.6-89.6-89.6s-89.6,40.15-89.6,89.6,40.15,89.6,89.6,89.6,89.6-40.07,89.6-89.6"/>
  <g>
    <path class="cls-1" d="m217.93,530.42h99.15v22.57h-124.76v-200.75h25.61v178.18Z"/>
    <path class="cls-1" d="m435.49,552.98v-20.12c-13.52,19.02-26.96,26.46-48.18,26.46-28.06,0-45.98-15.38-45.98-39.39v-111.24h22.82v102.19c0,17.33,11.58,28.4,29.75,28.4,23.92,0,39.39-19.27,39.39-48.77v-81.82h22.82v144.29h-20.62Z"/>
    <path class="cls-1" d="m623.9,556.87c-7.44,1.94-10.99,2.45-15.72,2.45-14.88,0-22.06-6.59-23.67-21.22-16.23,14.88-30.85,21.22-49.02,21.22-29.16,0-47.33-16.48-47.33-42.69,0-18.76,8.54-31.7,25.36-38.54,8.79-3.55,13.78-4.65,46.23-8.79,18.17-2.2,23.92-6.34,23.92-15.98v-6.09c0-13.78-11.58-21.47-32.2-21.47s-31.95,7.95-33.89,25.61h-23.16c.59-14.28,3.3-22.57,9.89-30.01,9.64-10.73,26.96-16.82,47.93-16.82,35.5,0,54.26,13.78,54.26,39.39v84.86c0,7.18,4.4,11.33,12.43,11.33,1.35,0,2.45,0,4.99-.59v17.33h0Zm-40.23-75.23c-7.69,3.55-12.68,4.65-36.94,7.95-24.51,3.55-34.74,11.33-34.74,26.46s10.48,23.16,28.4,23.16c13.52,0,24.77-4.4,34.15-12.93,6.85-6.34,9.13-10.99,9.13-18.76v-25.86Z"/>
  </g>
  <path class="cls-2" d="m414.18,800l-.32-9.18c11.34-.4,22.78-1.29,34-2.66l1.11,9.11c-11.48,1.4-23.18,2.32-34.79,2.72Zm-34.9-.28c-11.6-.59-23.29-1.7-34.74-3.29l1.26-9.09c11.19,1.55,22.62,2.63,33.95,3.21l-.47,9.17Zm104.12-8.19l-1.91-8.98c11.08-2.35,22.19-5.22,33.01-8.54l2.69,8.78c-11.08,3.39-22.45,6.33-33.79,8.74Zm-173.19-1.41c-11.3-2.59-22.62-5.72-33.65-9.29l2.83-8.73c10.77,3.49,21.83,6.55,32.87,9.08l-2.05,8.95Zm239.88-19.01l-3.45-8.51c10.49-4.25,20.92-9.02,31-14.17l4.18,8.17c-10.32,5.28-21,10.16-31.74,14.51Zm-306.25-2.51c-10.67-4.53-21.28-9.59-31.52-15.04l4.31-8.1c10,5.32,20.36,10.27,30.79,14.69l-3.59,8.45Zm368.34-29.23l-4.88-7.78c9.59-6.01,19.04-12.52,28.08-19.35l5.53,7.33c-9.26,6.99-18.93,13.66-28.74,19.81Zm-429.93-3.55c-9.72-6.32-19.28-13.14-28.42-20.28l5.65-7.23c8.93,6.98,18.27,13.65,27.77,19.82l-5,7.7Zm485.59-38.48l-6.15-6.82c8.42-7.59,16.6-15.64,24.32-23.92l6.71,6.26c-7.9,8.47-16.28,16.71-24.89,24.47Zm-540.56-4.46c-8.48-7.9-16.72-16.27-24.49-24.88l6.81-6.15c7.59,8.41,15.64,16.59,23.93,24.31l-6.26,6.72Zm588.13-46.55l-7.23-5.66c6.99-8.93,13.66-18.27,19.83-27.76l7.69,5.01c-6.32,9.71-13.15,19.27-20.3,28.41Zm-634.85-5.23c-7-9.25-13.66-18.92-19.82-28.73l7.78-4.88c6.02,9.59,12.53,19.03,19.37,28.07l-7.32,5.54Zm672.9-53.24l-8.1-4.32c5.33-10.01,10.28-20.37,14.71-30.78l8.45,3.59c-4.53,10.66-9.6,21.26-15.06,31.51Zm-709.97-5.83c-5.28-10.32-10.17-21-14.53-31.73l8.51-3.45c4.26,10.49,9.03,20.91,14.19,31l-8.17,4.18Zm737.27-58.39l-8.73-2.84c3.5-10.77,6.56-21.83,9.1-32.86l8.95,2.06c-2.6,11.3-5.73,22.62-9.31,33.64Zm-763.49-6.23c-3.4-11.08-6.34-22.45-8.76-33.79l8.98-1.91c2.36,11.08,5.24,22.19,8.56,33.01l-8.78,2.69Zm779.13-61.74l-9.09-1.27c1.56-11.19,2.65-22.61,3.23-33.95l9.17.47c-.6,11.6-1.71,23.29-3.31,34.74ZM2.74,449.2c-1.41-11.48-2.33-23.19-2.74-34.79l9.17-.33c.4,11.34,1.3,22.78,2.68,34l-9.11,1.12Zm788.08-62.85c-.39-11.32-1.3-22.76-2.68-34.01l9.11-1.12c1.41,11.51,2.34,23.22,2.74,34.81l-9.18.32Zm-781.4-6.38l-9.17-.46c.59-11.6,1.69-23.29,3.27-34.75l9.09,1.26c-1.55,11.2-2.62,22.62-3.19,33.95Zm773.09-61.28c-2.36-11.08-5.23-22.2-8.54-33.03l8.78-2.68c3.39,11.09,6.33,22.46,8.74,33.8l-8.98,1.91Zm-763.75-6.21l-8.95-2.05c2.59-11.3,5.71-22.63,9.27-33.65l8.73,2.83c-3.49,10.77-6.53,21.83-9.06,32.88Zm743.83-58.97c-4.24-10.5-9-20.95-14.14-31.05l8.18-4.17c5.26,10.34,10.13,21.03,14.47,31.78l-8.51,3.44Zm-722.85-5.87l-8.45-3.58c4.52-10.67,9.58-21.28,15.02-31.53l8.11,4.31c-5.32,10.01-10.26,20.37-14.68,30.8Zm31.99-60.2l-7.7-5c6.31-9.72,13.13-19.28,20.26-28.43l7.24,5.65c-6.98,8.94-13.64,18.28-19.8,27.78Zm41.94-53.74l-6.72-6.25c7.9-8.49,16.26-16.73,24.86-24.5l6.15,6.81c-8.41,7.59-16.58,15.65-24.3,23.94Zm50.57-45.69l-5.54-7.32c9.25-7,18.91-13.67,28.72-19.84l4.88,7.77c-9.58,6.02-19.03,12.55-28.06,19.38Zm418.76-33.67c-10.01-5.3-20.38-10.22-30.82-14.62l3.57-8.46c10.68,4.51,21.29,9.54,31.54,14.96l-4.29,8.11Zm-361.07-2.59l-4.19-8.17c10.32-5.29,20.99-10.18,31.72-14.55l3.46,8.5c-10.48,4.26-20.91,9.04-30.99,14.21Zm298.27-23.92c-10.78-3.48-21.85-6.53-32.89-9.05l2.05-8.95c11.3,2.59,22.63,5.7,33.66,9.27l-2.82,8.74Zm-235.16-1.74l-2.7-8.78c11.08-3.41,22.45-6.36,33.78-8.78l1.92,8.98c-11.08,2.36-22.18,5.25-33,8.58Zm168.71-13.47c-11.22-1.56-22.65-2.64-33.96-3.21l.46-9.17c11.58.59,23.27,1.69,34.76,3.28l-1.26,9.09Zm-102.08-.75l-1.12-9.11c11.48-1.42,23.18-2.35,34.79-2.76l.33,9.17c-11.34.41-22.78,1.32-33.99,2.7Z"/>
</svg>