<?xml version="1.0" encoding="UTF-8"?>
<svg id="Layer_1" xmlns="http://www.w3.org/2000/svg" viewBox="0 0 800 800">
  <defs>
    <style>
      .cls-1 {
        fill: #fff;
      }
    </style>
  </defs>
  <path class="cls-1" d="M373.81.22c-1.72.16-7.19.7-12.12,1.09C248.08,11.55,141.66,72.85,74.26,167.07,36.73,219.46,12.73,278.88,3.66,341.83.45,363.8.06,370.29.06,400.08s.39,36.28,3.6,58.25c21.74,150.2,128.62,276.4,273.59,323.16,25.96,8.37,53.33,14.07,84.45,17.51,12.12,1.33,64.51,1.33,76.63,0,53.72-5.94,99.22-19.23,144.1-42.14,6.88-3.52,8.21-4.46,7.27-5.24-.63-.47-29.95-39.8-65.13-87.34l-63.96-86.4-80.14-118.61c-44.1-65.21-80.38-118.54-80.69-118.54-.31-.08-.63,52.62-.78,116.97-.23,112.67-.31,117.21-1.72,119.87-2.03,3.83-3.6,5.4-6.88,7.12-2.5,1.25-4.69,1.49-16.5,1.49h-13.53l-3.6-2.27c-2.35-1.49-4.07-3.44-5.24-5.71l-1.64-3.52.16-156.77.23-156.85,2.42-3.05c1.25-1.64,3.91-3.75,5.79-4.77,3.21-1.56,4.46-1.72,17.98-1.72,15.95,0,18.61.63,22.75,5.16,1.17,1.25,44.57,66.62,96.49,145.35,51.92,78.74,122.91,186.25,157.79,239.03l63.33,95.94,3.21-2.11c28.38-18.45,58.41-44.72,82.18-72.09,50.59-58.1,83.19-128.94,94.14-204.47,3.21-21.97,3.6-28.46,3.6-58.25s-.39-36.28-3.6-58.25c-21.74-150.2-128.62-276.4-273.59-323.16-25.57-8.29-52.78-14-83.27-17.44-7.51-.78-59.19-1.64-65.68-1.02h0ZM537.54,242.13c3.75,1.88,6.8,5.47,7.9,9.23.63,2.03.78,45.51.63,143.48l-.23,140.59-24.79-38-24.86-38v-102.19c0-66.07.31-103.21.78-105.01,1.25-4.38,3.99-7.82,7.74-9.85,3.21-1.64,4.38-1.8,16.65-1.8,11.57,0,13.61.16,16.19,1.56h0Z"/>
</svg>