<?xml version="1.0" encoding="UTF-8"?>
<svg id="Layer_1" data-name="Layer 1" xmlns="http://www.w3.org/2000/svg" xmlns:xlink="http://www.w3.org/1999/xlink" viewBox="0 0 800 800">
  <defs>
    <style>
      .cls-1 {
        fill: url(#linear-gradient-2);
      }

      .cls-2 {
        fill: url(#linear-gradient);
      }
    </style>
    <linearGradient id="linear-gradient" x1="-.87" y1="742.05" x2="775.12" y2="74.41" gradientTransform="translate(-14.55 444.24) scale(.56 -.57)" gradientUnits="userSpaceOnUse">
      <stop offset="0" stop-color="#5a9fd4"/>
      <stop offset="1" stop-color="#306998"/>
    </linearGradient>
    <linearGradient id="linear-gradient-2" x1="1075.13" y1="-329.67" x2="798.02" y2="62.39" gradientTransform="translate(-14.55 444.24) scale(.56 -.57)" gradientUnits="userSpaceOnUse">
      <stop offset="0" stop-color="#ffd43b"/>
      <stop offset="1" stop-color="#ffe873"/>
    </linearGradient>
  </defs>
  <path id="path1948" class="cls-2" d="m395.29,0c-32.63.15-63.79,2.93-91.2,7.79-80.76,14.27-95.43,44.13-95.43,99.21v72.74h190.85v24.25H137.03c-55.47,0-104.04,33.34-119.23,96.76C.28,373.44-.5,418.81,17.8,494.72c13.57,56.5,45.97,96.76,101.43,96.76h65.62v-87.2c0-62.99,54.5-118.56,119.23-118.56h190.63c53.07,0,95.43-43.69,95.43-96.98V107c0-51.72-43.63-90.58-95.43-99.21C461.93,2.33,427.92-.15,395.29,0Zm-103.21,58.5c19.71,0,35.81,16.36,35.81,36.48,0,20.05-16.1,36.26-35.81,36.26-19.78,0-35.81-16.21-35.81-36.26s16.03-36.48,35.81-36.48Z"/>
  <path id="path1950" class="cls-1" d="m613.95,203.99v84.75c0,65.71-55.71,121.01-119.23,121.01h-190.63c-52.22,0-95.43,44.69-95.43,96.98v181.73c0,51.72,44.98,82.15,95.43,96.98,60.41,17.76,118.35,20.97,190.63,0,48.05-13.91,95.43-41.91,95.43-96.98v-72.74h-190.63v-24.25h286.06c55.47,0,76.14-38.69,95.43-96.76,19.93-59.78,19.08-117.28,0-193.97-13.71-55.22-39.89-96.76-95.43-96.76h-71.63Zm-107.22,460.23c19.78,0,35.81,16.21,35.81,36.26s-16.03,36.48-35.81,36.48-35.81-16.36-35.81-36.48,16.1-36.26,35.81-36.26Z"/>
</svg>