<?xml version="1.0" encoding="UTF-8"?>
<svg id="Layer_1" data-name="Layer 1" xmlns="http://www.w3.org/2000/svg" viewBox="0 0 800 800">
  <defs>
    <style>
      .cls-1 {
        fill: #61dafb;
        stroke-width: 0px;
      }
    </style>
  </defs>
  <circle class="cls-1" cx="400" cy="399.84" r="71.3"/>
  <g>
    <path class="cls-1" d="m400,563.32C175.7,563.32,0,491.51,0,399.85s175.7-163.49,400-163.49,400,71.81,400,163.49-175.71,163.47-400,163.47Zm0-292.17c-215.23,0-365.22,67.83-365.22,128.7s149.98,128.69,365.22,128.69,365.22-67.83,365.22-128.69-150-128.7-365.22-128.7Z"/>
    <path class="cls-1" d="m559.68,756.56c-35.43,0-78.29-19.46-124.83-57.27-61.63-50.1-124.29-127.41-176.43-217.7-52.12-90.3-87.75-183.22-100.32-261.65-13.47-84,1.43-143.14,41.9-166.51,79.52-45.69,229.42,70.45,341.58,264.67h0c52.14,90.29,87.77,183.22,100.34,261.65,13.45,84-1.43,143.14-41.92,166.47-11.96,6.93-25.48,10.33-40.32,10.33ZM240.22,78.01c-8.7,0-16.37,1.82-22.83,5.55-26.72,15.42-35.8,63.13-24.95,130.88,11.91,74.34,46.04,163.04,96.11,249.76,50.07,86.72,109.82,160.6,168.24,208.08,53.23,43.31,99.15,59.24,125.82,43.85,26.7-15.42,35.8-63.15,24.97-130.91-11.92-74.32-46.06-163.03-96.09-249.73h0C417.02,171.94,302.48,78.01,240.22,78.01Z"/>
    <path class="cls-1" d="m240.32,756.56c-14.84,0-28.36-3.4-40.32-10.33-40.47-23.34-55.37-82.47-41.9-166.47,12.57-78.43,48.2-171.37,100.32-261.65C370.57,123.91,520.45,7.54,600,53.43c79.38,45.82,53.74,233.9-58.42,428.16h0c-52.14,90.29-114.78,167.6-176.43,217.7-46.52,37.81-89.4,57.27-124.83,57.27ZM559.78,78.01c-62.26,0-176.8,93.94-271.23,257.49-50.07,86.7-84.21,175.41-96.11,249.76-10.85,67.73-1.77,115.46,24.95,130.88,26.75,15.35,72.59-.58,125.83-43.85,58.41-47.45,118.16-121.37,168.26-208.08,107.57-186.41,123.85-350.22,71.13-380.64-6.45-3.74-14.13-5.55-22.83-5.55Z"/>
  </g>
</svg>