<?xml version="1.0" encoding="UTF-8" standalone="no" ?>
<!DOCTYPE svg PUBLIC "-//W3C//DTD SVG 1.1//EN" "http://www.w3.org/Graphics/SVG/1.1/DTD/svg11.dtd">
<svg xmlns="http://www.w3.org/2000/svg" xmlns:xlink="http://www.w3.org/1999/xlink" version="1.1" width="400" height="400" viewBox="0 0 400 400" xml:space="preserve">
<desc>Created with Fabric.js 3.6.6</desc>
<defs>
</defs>
<g transform="matrix(1 0 0 1 200.2 200.13)" clip-path="url(#CLIPPATH_6)"  >
<clipPath id="CLIPPATH_6" >
	<rect transform="matrix(1 0 0 1 0.3 0.37)" id="clip0_682_25" x="-200" y="-200" rx="0" ry="0" width="400" height="400" />
</clipPath>
<path style="stroke: none; stroke-width: 1; stroke-dasharray: none; stroke-linecap: butt; stroke-dashoffset: 0; stroke-linejoin: miter; stroke-miterlimit: 4; fill: rgb(255,255,255); fill-rule: nonzero; opacity: 1;"  transform=" translate(-405.7, -393.63)" d="M 605.28 288.733 C 605.221 287.368 605.102 286.033 604.984 284.668 C 604.954 284.342 604.954 283.986 604.894 283.659 C 604.805 282.829 604.687 282.027 604.568 281.197 C 604.449 280.336 604.36 279.506 604.241 278.675 C 604.152 278.082 604.034 277.488 603.915 276.924 C 603.737 275.886 603.559 274.818 603.351 273.78 C 603.173 272.949 602.965 272.148 602.787 271.317 C 602.609 270.516 602.431 269.745 602.253 268.944 C 602.045 268.113 601.778 267.312 601.54 266.481 C 601.333 265.71 601.125 264.968 600.887 264.197 C 600.62 263.366 600.323 262.535 600.027 261.704 C 599.789 260.992 599.552 260.28 599.314 259.568 C 598.928 258.53 598.513 257.521 598.127 256.512 C 597.919 256.008 597.741 255.533 597.533 255.029 C 597.058 253.931 596.584 252.863 596.079 251.795 C 595.901 251.409 595.723 250.994 595.545 250.608 C 595.07 249.599 594.535 248.62 594.031 247.641 C 593.793 247.196 593.586 246.751 593.348 246.306 C 592.755 245.208 592.102 244.111 591.478 243.043 C 591.3 242.746 591.152 242.449 590.974 242.153 C 590.291 241.025 589.579 239.927 588.837 238.83 C 588.688 238.592 588.54 238.355 588.391 238.118 C 587.501 236.812 586.581 235.507 585.631 234.231 C 584.741 233.044 583.82 231.857 582.871 230.7 C 582.811 230.611 582.752 230.522 582.663 230.433 C 564.319 208.211 536.626 194.089 505.609 194.059 V 194 L 505.52 194.059 H 505.549 C 496.942 194.059 488.571 195.157 480.587 197.204 C 475.808 198.421 471.148 200.023 466.666 201.892 C 465.182 202.515 463.698 203.197 462.243 203.88 C 432.769 218.061 411.398 246.306 406.679 279.891 H 406.62 C 404.542 294.281 400.119 307.899 393.827 320.419 H 394.035 C 372.129 363.854 327.132 393.671 275.129 393.671 C 251.918 393.671 230.131 387.738 211.135 377.324 C 208.909 376.107 206.208 377.71 206.208 380.231 V 393.671 H 206 V 593.254 H 405.7 V 493.448 H 405.907 V 443.545 C 405.907 415.982 428.258 393.642 455.832 393.642 H 505.757 C 514.305 393.642 522.587 392.544 530.512 390.497 C 535.291 389.251 539.951 387.678 544.433 385.809 C 545.917 385.186 547.401 384.504 548.855 383.821 C 579.398 369.106 601.303 339.288 604.894 304.071 C 605.221 300.719 605.399 297.307 605.399 293.865 C 605.399 292.145 605.369 290.424 605.28 288.733 Z" stroke-linecap="round" />
</g>
</svg>