<svg width="244" height="293" xmlns="http://www.w3.org/2000/svg" fill="none">

 <g>
  <title>Layer 1</title>
  <path id="svg_1" fill="white" d="m0,293.471l0,-293.471l132.062,0c18.726,0 35.635,4.053 50.728,12.158c15.373,8.105 27.391,19.285 36.055,33.54c8.665,13.974 12.997,29.906 12.997,47.793c0,18.447 -4.332,35.077 -12.997,49.89c-8.664,14.534 -20.543,25.994 -35.636,34.378c-15.092,8.385 -32.142,12.578 -51.147,12.578l-64.145,0l0,103.134l-67.917,0zm162.667,0l-74.626,-132.481l72.949,-10.481l83.01,142.962l-81.333,0zm-94.75,-157.636l57.856,0c7.267,0 13.556,-1.537 18.866,-4.612c5.59,-3.354 9.782,-7.965 12.577,-13.835c3.075,-5.869 4.612,-12.577 4.612,-20.123c0,-7.547 -1.677,-14.115 -5.031,-19.705c-3.354,-5.869 -8.245,-10.341 -14.673,-13.416c-6.149,-3.074 -13.696,-4.611 -22.64,-4.611l-51.567,0l0,76.302z"/>
 </g>
</svg>