<?xml version="1.0" encoding="UTF-8"?>
<svg id="Layer_1" data-name="Layer 1" xmlns="http://www.w3.org/2000/svg" viewBox="0 0 800 800">
  <defs>
    <style>
      .cls-1 {
        fill: #fff;
        fill-rule: evenodd;
        stroke-width: 0px;
      }
    </style>
  </defs>
  <path class="cls-1" d="m660.41,301.06c5.34-11.98,19.33-17.45,31.31-12.11,11.98,5.34,17.38,19.4,12.11,31.38-5.34,12.04-19.33,17.45-31.31,12.11-12.04-5.34-17.45-19.33-12.11-31.38h0ZM382.39,77.33c9.5-9.05,24.54-8.72,33.59.78,9.05,9.5,8.72,24.54-.78,33.65-9.5,9.05-24.48,8.72-33.59-.78-9.05-9.57-8.72-24.61.78-33.65h0Zm310.04,320.07c0,7.29-.26,14.52-.78,21.74h-30.01c-2.99,0-4.23,1.95-4.23,4.88v13.8c0,32.42-18.29,39.51-34.3,41.27-15.23,1.69-32.16-6.38-34.24-15.75-8.98-50.64-24.02-61.45-47.71-80.13,29.42-18.68,60.02-46.22,60.02-83.06,0-39.84-27.27-64.9-45.89-77.2-26.1-17.18-55-20.63-62.82-20.63H182.16c42.05-46.93,99.07-80.2,163.58-92.3l36.58,38.34c8.27,8.66,21.94,8.98,30.59.72l40.94-39.12c85.73,15.95,158.37,69.32,200.16,142.55l-27.99,63.27c-4.82,10.94.13,23.76,11,28.64l53.96,23.95c.98,9.5,1.43,19.2,1.43,29.03h0Zm-358.67-49.6v-55.07h98.68c5.08,0,36,5.92,36,28.97,0,19.2-23.69,26.04-43.16,26.04l-91.52.07h0Zm-224.51,18.16l51.16-22.72c10.94-4.88,15.88-17.64,11-28.64l-10.55-23.82h41.46v186.82h-83.58c-7.23-25.52-11.13-52.4-11.13-80.2-.07-10.68.52-21.16,1.63-31.44h0Zm27.86-66.07c5.34,11.98-.07,26.1-12.11,31.38-11.98,5.34-26.04-.07-31.31-12.11-5.34-12.04.07-26.04,12.11-31.38,11.98-5.34,26.04.13,31.31,12.11h0Zm90.68,367.65c-12.82,2.8-25.45-5.4-28.19-18.23-2.73-12.89,5.4-25.52,18.23-28.25s25.45,5.4,28.19,18.29c2.73,12.76-5.4,25.45-18.23,28.19h0Zm330.55-76.03c-11.72-2.54-23.24,4.95-25.71,16.66l-11.91,55.66c-36.78,16.73-77.66,25.97-120.68,25.97s-85.73-9.76-123.22-27.14l-11.91-55.66c-2.54-11.72-14-19.14-25.71-16.66l-49.15,10.55c-9.11-9.37-17.58-19.4-25.39-29.94h239.02c2.73,0,4.49-.52,4.49-2.93v-84.56c0-2.47-1.82-2.93-4.49-2.93h-69.91v-53.57h75.57c6.9,0,36.91,1.95,46.48,40.29,2.99,11.78,9.57,50.12,14.13,62.42,4.49,13.8,22.78,41.27,42.31,41.27h119.06c1.37,0,2.8-.13,4.3-.46-8.27,11.2-17.31,21.87-27.08,31.77l-50.19-10.74h0Zm11.39,77.2c-12.82-2.8-20.96-15.43-18.23-28.25,2.73-12.82,15.36-21.03,28.19-18.23,12.82,2.73,21.03,15.43,18.23,28.25-2.73,12.76-15.36,20.96-28.19,18.23h0Zm224.77-278.6l-33.59-20.76c-.26-3.25-.59-6.51-.98-9.76l28.84-26.88c2.93-2.73,4.23-6.77,3.45-10.68-.78-3.91-3.52-7.16-7.29-8.59l-36.91-13.8c-.91-3.19-1.89-6.38-2.86-9.5l22.98-31.96c2.34-3.25,2.8-7.49,1.3-11.2-1.5-3.71-4.88-6.31-8.79-6.97l-38.93-6.31c-1.5-2.93-3.06-5.86-4.69-8.72l16.34-35.87c1.69-3.65,1.3-7.88-.91-11.2-2.21-3.32-5.99-5.27-10.02-5.14l-39.51,1.37c-2.02-2.54-4.1-5.08-6.25-7.55l9.05-38.47c.91-3.91-.26-8.01-3.06-10.81s-6.9-3.97-10.81-3.06l-38.47,9.05c-2.47-2.08-5.01-4.17-7.55-6.25l1.37-39.51c.13-3.97-1.82-7.81-5.14-10.02s-7.55-2.54-11.2-.91l-35.87,16.34c-2.86-1.56-5.79-3.19-8.72-4.69l-6.31-38.93c-.65-3.97-3.25-7.29-6.97-8.79-3.71-1.56-7.94-1.04-11.2,1.3l-31.96,23.04c-3.12-.98-6.31-1.95-9.5-2.86l-13.73-37.04c-1.37-3.78-4.62-6.51-8.59-7.29-3.91-.78-7.94.52-10.68,3.45l-26.95,28.9c-3.25-.39-6.51-.72-9.76-.98l-20.76-33.59c-2.08-3.38-5.79-5.47-9.83-5.47s-7.75,2.08-9.83,5.47l-20.76,33.59c-3.25.26-6.51.59-9.76.98l-26.95-28.9c-2.73-2.93-6.77-4.23-10.68-3.45s-7.16,3.52-8.59,7.29l-13.8,36.91c-3.19.91-6.38,1.89-9.5,2.86l-31.96-23.04c-3.25-2.34-7.49-2.86-11.2-1.3-3.71,1.5-6.31,4.88-6.97,8.79l-6.31,38.93c-2.93,1.5-5.86,3.06-8.72,4.69l-35.87-16.34c-3.65-1.69-7.88-1.3-11.2.91-3.32,2.21-5.27,5.99-5.14,10.02l1.37,39.51c-2.54,2.02-5.08,4.1-7.55,6.25l-38.47-9.05c-3.91-.91-8.01.26-10.81,3.06-2.86,2.86-3.97,6.9-3.06,10.81l9.05,38.47c-2.08,2.47-4.17,5.01-6.25,7.55l-39.51-1.37c-3.97-.13-7.81,1.82-10.02,5.14-2.21,3.32-2.54,7.55-.91,11.2l16.34,35.87c-1.56,2.86-3.19,5.79-4.69,8.72l-38.93,6.31c-3.97.65-7.29,3.25-8.79,6.97s-1.04,7.94,1.3,11.2l23.04,31.96c-.98,3.12-1.95,6.31-2.86,9.5l-36.97,13.86c-3.78,1.37-6.51,4.62-7.29,8.59-.78,3.91.52,7.94,3.45,10.68l28.84,26.88c-.33,3.25-.65,6.51-.98,9.76l-33.59,20.76c-3.32,2.21-5.4,5.92-5.4,9.89s2.08,7.75,5.47,9.83l33.59,20.76c.26,3.25.59,6.51.98,9.76l-28.84,26.95c-2.93,2.73-4.23,6.77-3.45,10.68s3.52,7.16,7.29,8.59l36.91,13.8c.91,3.19,1.89,6.38,2.86,9.5l-23.04,31.96c-2.34,3.25-2.86,7.49-1.3,11.2,1.56,3.71,4.88,6.38,8.85,6.97l38.86,6.38c1.5,2.93,3.06,5.86,4.69,8.72l-16.34,35.87c-1.69,3.65-1.3,7.88.91,11.2s6.05,5.27,10.02,5.14l39.45-1.37c2.08,2.54,4.1,5.08,6.25,7.55l-9.05,38.47c-.91,3.91.26,7.94,3.06,10.81,2.8,2.86,6.9,3.97,10.81,3.06l38.47-9.05c2.47,2.15,5.01,4.17,7.55,6.25l-1.37,39.51c-.13,3.97,1.82,7.81,5.14,10.02,3.32,2.21,7.55,2.54,11.2.91l35.87-16.34c2.86,1.63,5.79,3.19,8.72,4.69l6.31,38.86c.65,3.97,3.25,7.29,6.97,8.85s7.94,1.04,11.2-1.3l31.96-23.04c3.12.98,6.31,1.95,9.5,2.93l13.8,36.91c1.37,3.78,4.62,6.51,8.59,7.29,3.91.78,7.94-.52,10.68-3.45l26.95-28.84c3.25.39,6.51.72,9.76.98l20.76,33.59c2.08,3.38,5.79,5.47,9.83,5.47s7.75-2.08,9.83-5.47l20.76-33.59c3.25-.26,6.51-.59,9.76-.98l26.95,28.84c2.73,2.93,6.77,4.23,10.68,3.45,3.91-.78,7.16-3.52,8.59-7.29l13.8-36.91c3.19-.91,6.38-1.89,9.5-2.93l31.96,23.04c3.25,2.34,7.49,2.8,11.2,1.3,3.71-1.5,6.31-4.88,6.97-8.85l6.31-38.86c2.93-1.5,5.86-3.12,8.72-4.69l35.87,16.34c3.65,1.69,7.88,1.3,11.2-.91,3.32-2.21,5.27-5.99,5.14-10.02l-1.37-39.51c2.54-2.02,5.08-4.1,7.55-6.25l38.47,9.05c3.91.91,8.01-.2,10.81-3.06,2.86-2.86,3.97-6.9,3.06-10.81l-9.05-38.47c2.08-2.47,4.17-5.01,6.25-7.55l39.51,1.37c3.97.13,7.81-1.82,10.02-5.14,2.21-3.32,2.6-7.55.91-11.2l-16.34-35.87c1.63-2.93,3.19-5.79,4.69-8.72l38.93-6.31c3.97-.65,7.29-3.25,8.79-6.97,1.56-3.71,1.04-7.94-1.3-11.2l-23.04-31.96c.98-3.19,1.95-6.31,2.86-9.5l36.91-13.8c3.78-1.43,6.51-4.62,7.29-8.59.78-3.91-.52-7.94-3.45-10.68l-28.84-26.95c.33-3.25.65-6.51.98-9.76l33.59-20.76c3.38-2.08,5.47-5.79,5.47-9.83.06-4.04-2.02-7.75-5.4-9.89h0Z"/>
</svg>