<svg width="602" height="799" xmlns="http://www.w3.org/2000/svg" stroke="null" style="vector-effect: non-scaling-stroke;" xml:space="preserve" version="1.0">
 <g stroke="null" id="Layer_1">
  <title stroke="null">Layer 1</title>
  <g stroke="null">
   <path stroke="null" fill="url(#svg_3)" d="m301.19674,218.09616c-166.31547,0 -301.19674,-46.97983 -301.19674,-109.04808l0,580.90392c0,59.66782 132.48084,108.13363 296.96741,109.04808l4.22933,0c166.31547,0 301.19674,-46.97983 301.19674,-109.04808l0,-580.90392c0,60.69657 -134.76697,109.04808 -301.19674,109.04808z" class="st0"/>
   <path stroke="null" fill="#E9E8E8" d="m602.39349,109.04808c0,60.58227 -134.88127,109.04808 -301.19674,109.04808s-301.19674,-46.97983 -301.19674,-109.04808s134.88127,-109.04808 301.19674,-109.04808s301.19674,46.97983 301.19674,109.04808" class="st1"/>
   <path stroke="null" fill="#76CAE7" d="m532.43811,100.1322c0,38.52118 -103.9043,69.61245 -231.24137,69.61245s-231.24137,-31.09128 -231.24137,-69.61245s103.9043,-69.04092 231.24137,-69.04092s231.24137,30.97697 231.24137,69.04092" class="st2"/>
   <path stroke="null" fill="#1C8BB4" d="m301.19674,117.50674c-62.06825,-1.60029 -123.90788,7.4299 -182.77556,26.74764c58.98198,18.97482 120.82161,27.54779 182.77556,25.37597c62.06825,1.8289 124.02219,-7.4299 182.77556,-27.31917c-59.09629,-18.28899 -120.82161,-26.74764 -182.77556,-24.80444z" class="st3"/>
   <path stroke="null" fill="url(#svg_2)" d="m484.54383,512.32022l0,-159.80002l-42.29328,0l0,194.09187l115.56353,0l0,-34.29185l-73.27025,0zm-335.6029,-78.52833c-8.80157,-3.54349 -16.80301,-8.45866 -24.00429,-14.51688c-3.88641,-4.00072 -5.82961,-9.48741 -5.601,-15.08841c-0.34292,-5.601 2.40043,-10.97339 7.08698,-14.05966c5.82961,-4.00072 12.68798,-5.94392 19.77497,-5.601c16.6887,-0.80014 33.26309,4.00072 46.97983,13.60243l0,-40.46438c-14.97411,-5.601 -30.97697,-8.11574 -46.97983,-7.54421c-18.40329,-1.02876 -36.57797,4.68655 -51.20916,16.00286c-12.9166,9.94464 -20.23219,25.49027 -19.77497,41.83606c0,24.00429 15.08841,42.75051 46.97983,56.92447c10.40186,4.45794 20.23219,10.05894 29.14807,16.91731c4.45794,3.7721 6.97268,9.14449 7.08698,14.97411c0,5.82961 -2.85765,11.202 -7.54421,14.51688c-6.40115,3.7721 -13.71674,5.601 -21.14664,5.14378c-18.86052,-0.11431 -37.1495,-7.20129 -51.20916,-19.77497l0,43.66495c15.54564,8.00143 32.80587,11.88784 50.29471,11.31631c19.66066,1.14306 39.20701,-4.34363 55.43849,-15.54564c11.65923,-10.97339 17.37454,-26.86195 15.54564,-42.75051c0.22861,-12.00215 -4.00072,-23.77568 -11.77353,-32.92018c-11.0877,-11.43062 -24.34721,-20.57511 -39.09271,-26.63334zm246.21548,74.75623c20.80372,-33.3774 20.80372,-75.67068 0,-109.04808c-7.31559,-14.63119 -18.74621,-26.97625 -32.92018,-35.2063c-14.28827,-8.11574 -30.51975,-12.34507 -46.97983,-12.23076c-17.71746,-0.34292 -35.3206,4.00072 -50.75194,12.68798c-14.51688,8.11574 -26.40472,20.11788 -34.29185,34.74907c-8.34435,16.57439 -12.45937,34.97769 -12.23076,53.60959c0.11431,16.34578 3.88641,32.46295 11.31631,46.97983c7.20129,14.51688 18.40329,26.63334 32.46295,34.74907c14.17396,8.68727 30.40544,13.48813 46.97983,14.05966l40.46438,46.97983l56.92447,0l-57.83892,-51.66639c19.31774,-5.82961 36.12075,-18.5176 46.86553,-35.66352l0,0zm-46.97983,-11.77353c-8.68727,10.74478 -21.83248,16.80301 -35.66352,16.46009c-13.94535,0.45722 -27.20487,-5.82961 -35.66352,-16.91731c-9.94464,-13.60243 -14.7455,-30.17683 -13.60243,-46.97983c-1.14306,-16.80301 3.7721,-33.3774 13.60243,-46.97983c8.91588,-11.0877 22.40401,-17.48884 36.69228,-17.37454c13.94535,-0.57153 27.20487,5.94392 35.2063,17.37454c9.2588,13.83105 13.71674,30.40544 12.68798,46.97983c1.60029,16.80301 -3.08627,33.72032 -13.25951,47.43706l0,0z"/>
  </g>
 </g>
 <defs stroke="null" style="vector-effect: non-scaling-stroke;">
  <linearGradient stroke="null" style="vector-effect: non-scaling-stroke;" gradientTransform="matrix(1.5202717781066895,0,0,1.619351863861084,-544.3488464355469,243.56643679738045)" y2="116.0585" x2="753.3551" y1="116.0585" x1="358.0351" gradientUnits="userSpaceOnUse" id="svg_3">
   <stop stroke="null" style="vector-effect: non-scaling-stroke;" stop-color="#095CA2" offset="0"/>
   <stop stroke="null" style="vector-effect: non-scaling-stroke;" stop-color="#0B61AA" offset="0.07"/>
   <stop stroke="null" style="vector-effect: non-scaling-stroke;" stop-color="#2170B7" offset="0.36"/>
   <stop stroke="null" style="vector-effect: non-scaling-stroke;" stop-color="#2974BA" offset="0.52"/>
   <stop stroke="null" style="vector-effect: non-scaling-stroke;" stop-color="#2471B8" offset="0.64"/>
   <stop stroke="null" style="vector-effect: non-scaling-stroke;" stop-color="#176AB3" offset="0.82"/>
   <stop stroke="null" style="vector-effect: non-scaling-stroke;" stop-color="#095CA2" offset="1"/>
  </linearGradient>
  <radialGradient stroke="null" style="vector-effect: non-scaling-stroke;" gradientUnits="userSpaceOnUse" gradientTransform="matrix(1.5202717781066895,0,0,1.619351863861084,-544.3488464355469,243.56643679738045)" r="218.01" cy="129.788" cx="566.5825" id="svg_2">
   <stop stroke="null" style="vector-effect: non-scaling-stroke;" stop-color="#F2F2F2" offset="0"/>
   <stop stroke="null" style="vector-effect: non-scaling-stroke;" stop-color="#EFEEEE" offset="0.58"/>
   <stop stroke="null" style="vector-effect: non-scaling-stroke;" stop-color="#E7E6E6" offset="1"/>
  </radialGradient>
 </defs>
</svg>