<?xml version="1.0" encoding="UTF-8"?>
<svg id="Layer_1" data-name="Layer 1" xmlns="http://www.w3.org/2000/svg" viewBox="0 0 800 800">
  <defs>
    <style>
      .cls-1 {
        fill: #fff;
      }

      .cls-1, .cls-2 {
        stroke-width: 0px;
      }

      .cls-2 {
        fill: #ff3e00;
      }
    </style>
  </defs>
  <path class="cls-2" d="m689.93,105.83C616.04-.59,468.96-31.76,363.22,35.34l-186.4,119.29c-50.84,31.86-86.08,84.05-96.25,143.02-8.81,49.48-1.36,100.32,22.37,144.37-16.27,24.4-27.11,51.51-31.86,79.98-10.84,60.33,3.39,122.68,38.64,172.16,74.56,106.42,220.97,137.6,326.7,70.49l186.4-118.62c50.84-31.86,86.08-84.05,96.25-143.02,8.81-49.48,1.36-100.32-22.37-144.37,16.27-24.4,27.11-51.51,31.86-79.98,11.52-61-2.71-123.36-38.64-172.84"/>
  <path class="cls-1" d="m344.92,704.34c-60.33,15.59-123.36-8.13-158.61-58.97-21.69-29.82-29.82-67.1-23.72-103.7,1.36-6.1,2.71-11.52,4.07-17.62l3.39-10.84,9.49,6.78c22.37,16.27,46.77,28.47,73.2,36.6l6.78,2.03-.68,6.78c-.68,9.49,2.03,19.66,7.46,27.79,10.84,15.59,29.82,23.05,48.12,18.3,4.07-1.36,8.13-2.71,11.52-4.74l185.72-118.62c9.49-6.1,15.59-14.91,17.62-25.76,2.03-10.84-.68-22.37-6.78-31.18-10.84-15.59-29.82-22.37-48.12-17.62-4.07,1.36-8.13,2.71-11.52,4.74l-71.17,45.41c-11.52,7.46-24.4,12.88-37.96,16.27-60.33,15.59-123.36-8.13-158.61-58.97-21.01-29.82-29.82-67.1-23.05-103.7,6.1-35.25,27.79-67.1,58.29-86.08l186.4-118.62c11.52-7.46,24.4-12.88,37.96-16.95,60.33-15.59,123.36,8.13,158.61,58.97,21.69,29.82,29.82,67.1,23.72,103.7-1.36,6.1-2.71,11.52-4.74,17.62l-3.39,10.84-9.49-6.78c-22.37-16.27-46.77-28.47-73.2-36.6l-6.78-2.03.68-6.78c.68-9.49-2.03-19.66-7.46-27.79-10.84-15.59-29.82-22.37-48.12-17.62-4.07,1.36-8.13,2.71-11.52,4.74l-185.72,118.62c-9.49,6.1-15.59,14.91-17.62,25.76-2.03,10.84.68,22.37,6.78,31.18,10.84,15.59,29.82,22.37,48.12,17.62,4.07-1.36,8.13-2.71,11.52-4.74l71.17-45.41c11.52-7.46,24.4-12.88,37.96-16.95,60.33-15.59,123.36,8.13,158.61,58.97,21.69,29.82,29.82,67.1,23.72,103.7-6.1,35.25-27.79,67.1-58.29,86.08l-186.4,118.62c-11.52,7.46-24.4,12.88-37.96,16.95"/>
</svg>