<svg width="168" height="120" viewBox="0 0 168 120" fill="none" xmlns="http://www.w3.org/2000/svg">
<path d="M71.2864 120C62.0656 120 53.4046 116.463 46.8783 110.029L2.71638 66.4865C-0.90546 62.9155 -0.90546 57.1277 2.71638 53.5566L40.0808 16.7165C43.7027 13.1455 49.5728 13.1455 53.1947 16.7165C56.8165 20.2875 56.8165 26.0753 53.1947 29.6463L22.3915 60.0173L60.0009 97.0989C63.0191 100.075 67.0259 101.714 71.2951 101.714C75.5644 101.714 79.5711 100.075 82.5893 97.0989C86.0537 93.6832 87.9608 89.1461 87.9608 84.3243C87.9608 79.494 86.0537 74.9569 82.5893 71.5498L69.6242 58.7665C56.1691 45.5003 56.1691 23.9103 69.6242 10.644C76.5879 3.77803 85.8437 0 95.6944 0C105.545 0 114.801 3.77803 121.765 10.644L165.288 53.5566C167.029 55.2732 168 57.5934 168 60.0173C168 62.4411 167.02 64.77 165.288 66.4779L127.924 103.318C124.302 106.889 118.432 106.889 114.81 103.318C111.188 99.747 111.188 93.9592 114.81 90.3882L145.613 60.0173L108.642 23.5653C105.178 20.1495 100.576 18.2691 95.6857 18.2691C90.7953 18.2691 86.1937 20.1495 82.7293 23.5653C76.5004 29.7067 76.5004 39.6952 82.7293 45.8367L95.6944 58.6199C110.068 72.7918 110.068 95.8568 95.6944 110.029C89.1769 116.463 80.5072 120 71.2864 120Z" fill="#6EE691"/>
</svg>
