<?xml version="1.0" encoding="UTF-8"?>
<svg id="Layer_1" xmlns="http://www.w3.org/2000/svg" xmlns:xlink="http://www.w3.org/1999/xlink" viewBox="0 0 800 800">
  <defs>
    <style>
      .cls-1 {
        fill: none;
      }

      .cls-2 {
        fill: #38bdf8;
        fill-rule: evenodd;
      }

      .cls-3 {
        clip-path: url(#clippath);
      }
    </style>
    <clipPath id="clippath">
      <rect class="cls-1" y="160" width="800" height="480"/>
    </clipPath>
  </defs>
  <g class="cls-3">
    <path class="cls-2" d="M400,160c-106.67,0-173.33,53.33-200,160,40-53.33,86.67-73.33,140-60,30.43,7.6,52.18,29.69,76.25,54.12,39.21,39.81,84.61,85.88,183.75,85.88,106.67,0,173.33-53.33,200-160-40,53.33-86.67,73.33-140,60-30.43-7.6-52.18-29.69-76.25-54.12-39.21-39.81-84.61-85.88-183.75-85.88ZM200,400c-106.67,0-173.33,53.33-200,160,40-53.33,86.67-73.33,140-60,30.43,7.61,52.18,29.69,76.25,54.12,39.21,39.81,84.61,85.88,183.75,85.88,106.67,0,173.33-53.33,200-160-40,53.33-86.67,73.33-140,60-30.43-7.6-52.18-29.69-76.25-54.12-39.21-39.81-84.61-85.88-183.75-85.88Z"/>
  </g>
</svg>