<?xml version="1.0" encoding="UTF-8"?>
<svg id="Layer_1" data-name="Layer 1" xmlns="http://www.w3.org/2000/svg" viewBox="0 0 800 800">
  <defs>
    <style>
      .cls-1, .cls-2 {
        fill: #24c8db;
      }

      .cls-1, .cls-2, .cls-3, .cls-4 {
        stroke-width: 0px;
      }

      .cls-2, .cls-3 {
        fill-rule: evenodd;
      }

      .cls-3, .cls-4 {
        fill: #ffc131;
      }
    </style>
  </defs>
  <path class="cls-4" d="m540.08,291.16c0,42.04-34.08,76.12-76.12,76.12s-76.12-34.08-76.12-76.12,34.08-76.12,76.12-76.12,76.12,34.08,76.12,76.12Z"/>
  <circle class="cls-1" cx="335.95" cy="509.12" r="76.12"/>
  <g>
    <path class="cls-3" d="m621.73,535.07c-30.59,19.78-64.63,33.63-100.33,40.83,10.35-29.5,13.78-60.99,10.03-92.03,106.42-37.2,162.53-153.63,125.33-260.05-37.2-106.42-153.63-162.53-260.05-125.33-39.61,13.85-74,39.57-98.47,73.66-38.73,4.36-76.42,15.36-111.41,32.52C234.35,51.35,397.15-34.41,550.47,13.1c153.31,47.52,239.07,210.32,191.56,363.63-20.23,65.28-62.83,121.34-120.29,158.33h0ZM190.29,257.6l71.27,8.65c1.62-13.76,4.63-27.33,9-40.48-28.19,6.55-55.25,17.28-80.27,31.83h0Z"/>
    <path class="cls-2" d="m177.84,265.21c30.77-19.98,65.05-33.95,101.03-41.17-10.88,29.5-14.79,61.12-11.42,92.38-106.22,37.79-161.69,154.52-123.9,260.74,37.79,106.22,154.52,161.69,260.74,123.9,39.17-13.93,73.14-39.49,97.39-73.26,38.71-4.25,76.39-15.13,111.4-32.18-47.67,153.26-210.56,238.86-363.82,191.19C95.99,739.14,10.39,576.25,58.06,422.98c20.22-65,62.61-120.83,119.77-157.78h0Zm431.43,277.47l-1.38.69,1.38-.69Z"/>
  </g>
</svg>