<?xml version="1.0" encoding="UTF-8"?>
<svg id="Layer_1" data-name="Layer 1" xmlns="http://www.w3.org/2000/svg" viewBox="0 0 800 800">
  <defs>
    <style>
      .cls-1 {
        fill: #4c4c4c;
      }

      .cls-2 {
        fill: gray;
      }
    </style>
  </defs>
  <g id="g849">
    <path id="path6" class="cls-1" d="m754.17,560V186.67L430.83,0v143.33l126.67,73.33c5,3.33,5,10,0,11.67l-150,86.67c-5,3.33-10,1.67-13.33,0l-150-86.67c-5-1.67-5-10,0-11.67l126.67-73.33V0L45.83,186.67v373.33-1.67,1.67l123.33-71.67v-146.67c0-5,6.67-8.33,10-6.67l150,86.67c5,3.33,6.67,6.67,6.67,11.67v173.33c0,5-6.67,8.33-10,6.67l-126.67-73.33-123.33,71.67,323.33,188.33,323.33-186.67-123.33-71.67-126.67,73.33c-5,3.33-10,0-10-6.67v-173.33c0-5,3.33-10,6.67-11.67l150-86.67c5-3.33,10,0,10,6.67v146.67l125,70Z"/>
    <path id="path8" d="m399.17,800l323.33-186.67-123.33-71.67-126.67,73.33c-5,3.33-10,0-10-6.67v-173.33c0-5,3.33-10,6.67-11.67l150-86.67c5-3.33,10,0,10,6.67v146.67l123.33,71.67V186.67l-353.33,205v408.33Z"/>
    <path id="path10" class="cls-2" d="m430.83,0v143.33l126.67,73.33c5,3.33,5,10,0,11.67l-150,86.67c-5,3.33-10,1.67-13.33,0l-150-86.67c-5-1.67-5-10,0-11.67l126.67-73.33V0L45.83,186.67l353.33,205,353.33-205L430.83,0Z"/>
    <path id="path12" class="cls-1" d="m327.5,615l-126.67-73.33-123.33,71.67,323.33,186.67v-408.33L45.83,186.67v373.33-1.67,1.67l123.33-71.67v-146.67c0-5,6.67-8.33,10-6.67l150,86.67c5,3.33,6.67,6.67,6.67,11.67v173.33c1.67,6.67-3.33,11.67-8.33,8.33Z"/>
  </g>
</svg>