<?xml version="1.0" encoding="UTF-8"?>
<svg id="Layer_1" data-name="Layer 1" xmlns="http://www.w3.org/2000/svg" xmlns:xlink="http://www.w3.org/1999/xlink" viewBox="0 0 800 800">
  <defs>
    <style>
      .cls-1 {
        fill: #1f9cf0;
      }

      .cls-2 {
        fill: #fff;
      }

      .cls-2, .cls-3 {
        fill-rule: evenodd;
      }

      .cls-3 {
        fill: url(#linear-gradient);
      }

      .cls-4 {
        fill: #007acc;
      }

      .cls-5 {
        fill: #0065a9;
      }

      .cls-6 {
        mask: url(#mask);
      }

      .cls-7 {
        opacity: .25;
      }
    </style>
    <mask id="mask" x="0" y="2.3" width="800" height="795.39" maskUnits="userSpaceOnUse">
      <g id="mask0">
        <path class="cls-2" d="m567.44,794.3c12.59,4.91,26.95,4.59,39.66-1.52l164.61-79.21c17.3-8.32,28.3-25.83,28.3-45.03V131.47c0-19.2-11-36.71-28.3-45.03L607.1,7.23c-16.68-8.03-36.2-6.06-50.84,4.58-2.09,1.52-4.08,3.22-5.95,5.09L235.18,304.39l-137.26-104.19c-12.78-9.7-30.65-8.9-42.52,1.89l-44.02,40.05c-14.52,13.2-14.53,36.04-.04,49.27l119.04,108.6L11.35,508.6c-14.5,13.23-14.48,36.06.04,49.27l44.02,40.05c11.87,10.8,29.74,11.59,42.52,1.89l137.26-104.19,315.12,287.49c4.99,4.99,10.84,8.74,17.13,11.2Zm32.81-575.8l-239.1,181.5,239.1,181.5V218.5Z"/>
      </g>
    </mask>
    <linearGradient id="linear-gradient" x1="399.76" y1="799.7" x2="399.76" y2="4.3" gradientTransform="translate(0 802) scale(1 -1)" gradientUnits="userSpaceOnUse">
      <stop offset="0" stop-color="#fff"/>
      <stop offset="1" stop-color="#fff" stop-opacity="0"/>
    </linearGradient>
  </defs>
  <g class="cls-6">
    <g>
      <path class="cls-5" d="m771.71,86.56L606.97,7.24c-19.07-9.18-41.86-5.31-56.82,9.66L10.87,508.6c-14.51,13.22-14.49,36.06.04,49.27l44.05,40.05c11.87,10.8,29.76,11.59,42.54,1.89L746.92,107.14c21.79-16.53,53.08-.99,53.08,26.36v-1.91c0-19.2-11-36.7-28.29-45.02Z"/>
      <path class="cls-4" d="m771.71,713.44l-164.74,79.32c-19.07,9.18-41.86,5.31-56.82-9.66L10.87,291.4c-14.51-13.23-14.49-36.06.04-49.27l44.05-40.05c11.87-10.8,29.76-11.59,42.54-1.89l649.42,492.67c21.79,16.53,53.08.99,53.08-26.36v1.91c0,19.2-11,36.69-28.29,45.02Z"/>
      <path class="cls-1" d="m606.98,792.77c-19.07,9.18-41.86,5.29-56.83-9.67,18.44,18.44,49.97,5.38,49.97-20.7V37.6c0-26.08-31.53-39.14-49.97-20.7,14.97-14.97,37.75-18.84,56.83-9.67l164.71,79.21c17.31,8.32,28.31,25.83,28.31,45.03v537.06c0,19.2-11.01,36.71-28.31,45.03l-164.71,79.21Z"/>
      <g class="cls-7">
        <path class="cls-3" d="m566.95,794.3c12.59,4.91,26.95,4.59,39.66-1.52l164.61-79.21c17.3-8.32,28.3-25.83,28.3-45.03V131.47c0-19.21-11-36.71-28.3-45.03L606.61,7.23c-16.68-8.03-36.2-6.06-50.84,4.58-2.09,1.52-4.08,3.22-5.95,5.09L234.7,304.39l-137.26-104.19c-12.78-9.7-30.65-8.9-42.52,1.89l-44.02,40.05c-14.52,13.2-14.53,36.04-.04,49.27l119.04,108.6L10.86,508.6c-14.5,13.23-14.48,36.06.04,49.27l44.02,40.05c11.87,10.8,29.74,11.59,42.52,1.89l137.26-104.19,315.12,287.49c4.99,4.99,10.84,8.74,17.13,11.2Zm32.81-575.8l-239.1,181.5,239.1,181.5V218.5Z"/>
      </g>
    </g>
  </g>
</svg>